<svg width="448" height="939" viewBox="0 0 448 939" fill="none" xmlns="http://www.w3.org/2000/svg">
<g filter="url(#filter0_dd_40_1085)">
<path d="M134.755 291.403C136.445 290.843 137.803 291.035 138.828 291.979C139.854 292.891 140.366 294.323 140.366 296.275C140.366 299.091 139.507 301.827 137.789 304.483C136.099 307.091 133.729 309.275 130.681 311.035L117.088 318.883V285.187L130.224 277.603C133.189 275.891 135.503 275.339 137.166 275.947C138.856 276.539 139.701 278.179 139.701 280.867C139.701 282.851 139.244 284.763 138.33 286.603C137.443 288.427 136.251 290.027 134.755 291.403ZM124.196 294.715L128.852 292.027C130.016 291.355 130.903 290.555 131.512 289.627C132.15 288.651 132.468 287.587 132.468 286.435C132.468 285.283 132.15 284.587 131.512 284.347C130.903 284.091 130.016 284.299 128.852 284.971L124.196 287.659V294.715ZM129.434 305.131C130.625 304.443 131.54 303.611 132.177 302.635C132.842 301.611 133.175 300.507 133.175 299.323C133.175 298.139 132.829 297.411 132.136 297.139C131.471 296.851 130.542 297.051 129.351 297.739L124.196 300.715V308.155L129.434 305.131ZM155.048 297.351C152.775 298.663 150.725 299.287 148.896 299.223C147.094 299.143 145.667 298.367 144.614 296.895C143.589 295.407 143.076 293.271 143.076 290.487C143.076 287.735 143.602 285.015 144.656 282.327C145.709 279.607 147.15 277.159 148.979 274.983C150.808 272.807 152.859 271.063 155.131 269.751C157.403 268.439 159.454 267.815 161.283 267.879C163.112 267.943 164.553 268.727 165.606 270.231C166.66 271.703 167.186 273.815 167.186 276.567C167.186 279.319 166.646 282.063 165.565 284.799C164.512 287.487 163.057 289.927 161.2 292.119C159.371 294.295 157.32 296.039 155.048 297.351ZM155.048 290.247C156.406 289.463 157.556 288.223 158.498 286.527C159.468 284.815 159.953 282.887 159.953 280.743C159.953 278.599 159.482 277.223 158.54 276.615C157.625 275.991 156.489 276.071 155.131 276.855C153.745 277.655 152.595 278.895 151.681 280.575C150.766 282.223 150.309 284.135 150.309 286.311C150.309 288.455 150.752 289.847 151.639 290.487C152.554 291.111 153.69 291.031 155.048 290.247ZM178.065 261.358C178.897 259.406 179.936 257.654 181.183 256.102C182.43 254.518 183.816 253.286 185.34 252.406V261.094L183.386 262.222C181.613 263.246 180.283 264.462 179.396 265.87C178.509 267.246 178.065 269.038 178.065 271.246V283.678L170.957 287.782V260.998L178.065 256.894V261.358ZM195.846 251.092C196.677 249.14 197.717 247.388 198.964 245.836C200.211 244.252 201.596 243.02 203.121 242.14V250.828L201.167 251.956C199.393 252.98 198.063 254.196 197.176 255.604C196.289 256.98 195.846 258.772 195.846 260.98V273.412L188.738 277.516V250.732L195.846 246.628V251.092ZM217.077 261.538C214.804 262.85 212.754 263.474 210.925 263.41C209.123 263.33 207.696 262.554 206.643 261.082C205.618 259.594 205.105 257.458 205.105 254.674C205.105 251.922 205.632 249.202 206.685 246.514C207.738 243.794 209.179 241.346 211.008 239.17C212.837 236.994 214.888 235.25 217.16 233.938C219.433 232.626 221.483 232.002 223.312 232.066C225.141 232.13 226.582 232.914 227.635 234.418C228.689 235.89 229.215 238.002 229.215 240.754C229.215 243.506 228.675 246.25 227.594 248.986C226.541 251.674 225.086 254.114 223.229 256.306C221.4 258.482 219.349 260.226 217.077 261.538ZM217.077 254.434C218.435 253.65 219.585 252.41 220.527 250.714C221.497 249.002 221.982 247.074 221.982 244.93C221.982 242.786 221.511 241.41 220.569 240.802C219.654 240.178 218.518 240.258 217.16 241.042C215.774 241.842 214.624 243.082 213.71 244.762C212.795 246.41 212.338 248.322 212.338 250.498C212.338 252.642 212.781 254.034 213.668 254.674C214.583 255.298 215.719 255.218 217.077 254.434ZM266.283 205.961L260.006 236.369L252.15 240.905L248.492 225.641L244.709 245.201L236.894 249.713L230.575 226.577L237.684 222.473L240.968 239.729L244.875 218.321L252.399 213.977L256.348 230.753L259.591 209.825L266.283 205.961ZM272.569 199.548C271.322 200.268 270.296 200.444 269.493 200.076C268.717 199.66 268.329 198.828 268.329 197.58C268.329 196.3 268.717 195.02 269.493 193.74C270.296 192.412 271.322 191.388 272.569 190.668C273.788 189.964 274.786 189.82 275.562 190.236C276.366 190.604 276.767 191.428 276.767 192.708C276.767 193.956 276.366 195.244 275.562 196.572C274.786 197.852 273.788 198.844 272.569 199.548ZM276.102 200.292V227.076L268.994 231.18V204.396L276.102 200.292ZM295.387 188.87C298.103 187.302 300.265 187.078 301.872 188.198C303.507 189.27 304.325 191.582 304.325 195.134V210.782L297.258 214.862V200.318C297.258 198.526 296.856 197.366 296.052 196.838C295.249 196.31 294.168 196.438 292.81 197.222C291.452 198.006 290.371 199.126 289.567 200.582C288.764 202.038 288.362 203.662 288.362 205.454V219.998L281.254 224.102V197.318L288.362 193.214V196.766C289.082 195.166 290.052 193.678 291.272 192.302C292.491 190.894 293.863 189.75 295.387 188.87ZM318.077 175.674C319.712 174.73 321.139 174.29 322.358 174.354C323.606 174.402 324.562 174.858 325.227 175.722V171.93L332.335 167.826V194.562C332.335 197.026 331.906 199.498 331.046 201.978C330.215 204.474 328.926 206.818 327.18 209.01C325.462 211.186 323.315 213.018 320.737 214.506C317.301 216.49 314.516 217.154 312.382 216.498C310.248 215.874 309.029 214.05 308.724 211.026L315.749 206.97C315.971 207.866 316.497 208.362 317.329 208.458C318.16 208.586 319.185 208.298 320.405 207.594C321.873 206.746 323.037 205.578 323.897 204.09C324.783 202.618 325.227 200.81 325.227 198.666V194.874C324.534 196.522 323.578 198.098 322.358 199.602C321.139 201.074 319.712 202.282 318.077 203.226C316.165 204.33 314.433 204.77 312.881 204.546C311.329 204.29 310.096 203.386 309.181 201.834C308.294 200.234 307.851 198.058 307.851 195.306C307.851 192.554 308.294 189.882 309.181 187.29C310.096 184.682 311.329 182.37 312.881 180.354C314.433 178.338 316.165 176.778 318.077 175.674ZM325.227 185.322C325.227 183.274 324.728 181.946 323.73 181.338C322.76 180.714 321.569 180.81 320.155 181.626C318.742 182.442 317.536 183.73 316.539 185.49C315.569 187.202 315.084 189.082 315.084 191.13C315.084 193.178 315.569 194.53 316.539 195.186C317.536 195.794 318.742 195.69 320.155 194.874C321.569 194.058 322.76 192.778 323.73 191.034C324.728 189.274 325.227 187.37 325.227 185.322Z" fill="#6FBF86"/>
</g>
<path d="M0 515H448V939H0V515Z" fill="url(#paint0_linear_40_1085)"/>
<path d="M0 515H448V939H0V515Z" fill="url(#paint1_linear_40_1085)"/>
<path d="M435.444 529.931L254.311 620.514C237.573 628.887 210.427 628.887 193.681 620.514L12.5554 529.931C-4.18254 521.558 -4.18254 507.981 12.5554 499.608L193.681 409.025C210.419 400.652 237.565 400.652 254.311 409.025L435.444 499.608C452.182 507.981 452.182 521.558 435.444 529.931Z" fill="#202936"/>
<path d="M55.1846 472.076V499.801C55.1846 521.486 71.7295 543.17 104.811 559.715C170.975 592.805 278.256 592.805 344.419 559.715C377.501 543.17 394.046 521.486 394.046 499.801V472.076H55.1846Z" fill="url(#paint2_linear_40_1085)"/>
<path d="M224.615 556.811C318.189 556.811 394.046 518.874 394.046 472.076C394.046 425.278 318.189 387.341 224.615 387.341C131.041 387.341 55.1846 425.278 55.1846 472.076C55.1846 518.874 131.041 556.811 224.615 556.811Z" fill="url(#paint3_linear_40_1085)"/>
<path opacity="0.0476" d="M207.612 535.915C280.086 535.915 338.837 506.534 338.837 470.29C338.837 434.047 280.086 404.666 207.612 404.666C135.138 404.666 76.3865 434.047 76.3865 470.29C76.3865 506.534 135.138 535.915 207.612 535.915Z" fill="#152118"/>
<path opacity="0.0952" d="M208.456 535.489C280.93 535.489 339.682 506.108 339.682 469.864C339.682 433.621 280.93 404.24 208.456 404.24C135.983 404.24 77.231 433.621 77.231 469.864C77.231 506.108 135.983 535.489 208.456 535.489Z" fill="#152118"/>
<path opacity="0.1429" d="M209.293 535.071C281.767 535.071 340.518 505.689 340.518 469.446C340.518 433.202 281.767 403.821 209.293 403.821C136.819 403.821 78.0676 433.202 78.0676 469.446C78.0676 505.689 136.819 535.071 209.293 535.071Z" fill="#152118"/>
<path opacity="0.1905" d="M210.137 534.652C282.611 534.652 341.363 505.271 341.363 469.028C341.363 432.784 282.611 403.403 210.137 403.403C137.664 403.403 78.9121 432.784 78.9121 469.028C78.9121 505.271 137.664 534.652 210.137 534.652Z" fill="#152118"/>
<path opacity="0.2381" d="M210.974 534.234C283.448 534.234 342.199 504.853 342.199 468.609C342.199 432.366 283.448 402.985 210.974 402.985C138.5 402.985 79.7485 432.366 79.7485 468.609C79.7485 504.853 138.5 534.234 210.974 534.234Z" fill="#152118"/>
<path opacity="0.2857" d="M211.819 533.808C284.292 533.808 343.044 504.427 343.044 468.183C343.044 431.94 284.292 402.558 211.819 402.558C139.345 402.558 80.5933 431.94 80.5933 468.183C80.5933 504.427 139.345 533.808 211.819 533.808Z" fill="#152118"/>
<path opacity="0.3333" d="M212.655 533.39C285.129 533.39 343.88 504.008 343.88 467.765C343.88 431.521 285.129 402.14 212.655 402.14C140.181 402.14 81.4297 431.521 81.4297 467.765C81.4297 504.008 140.181 533.39 212.655 533.39Z" fill="#152118"/>
<path opacity="0.381" d="M213.5 532.971C285.973 532.971 344.725 503.59 344.725 467.347C344.725 431.103 285.973 401.722 213.5 401.722C141.026 401.722 82.2742 431.103 82.2742 467.347C82.2742 503.59 141.026 532.971 213.5 532.971Z" fill="#152118"/>
<path opacity="0.4286" d="M214.344 532.545C286.818 532.545 345.569 503.164 345.569 466.92C345.569 430.677 286.818 401.295 214.344 401.295C141.87 401.295 83.1187 430.677 83.1187 466.92C83.1187 503.164 141.87 532.545 214.344 532.545Z" fill="#152118"/>
<path opacity="0.4762" d="M215.181 532.127C287.654 532.127 346.406 502.746 346.406 466.502C346.406 430.258 287.654 400.877 215.181 400.877C142.707 400.877 83.9553 430.258 83.9553 466.502C83.9553 502.746 142.707 532.127 215.181 532.127Z" fill="#152118"/>
<path opacity="0.5238" d="M216.025 531.708C288.499 531.708 347.25 502.327 347.25 466.084C347.25 429.84 288.499 400.459 216.025 400.459C143.551 400.459 84.7998 429.84 84.7998 466.084C84.7998 502.327 143.551 531.708 216.025 531.708Z" fill="#152118"/>
<path opacity="0.5714" d="M216.862 531.29C289.335 531.29 348.087 501.909 348.087 465.666C348.087 429.422 289.335 400.041 216.862 400.041C144.388 400.041 85.6362 429.422 85.6362 465.666C85.6362 501.909 144.388 531.29 216.862 531.29Z" fill="#152118"/>
<path opacity="0.619" d="M217.706 530.864C290.18 530.864 348.931 501.483 348.931 465.239C348.931 428.996 290.18 399.615 217.706 399.615C145.232 399.615 86.4807 428.996 86.4807 465.239C86.4807 501.483 145.232 530.864 217.706 530.864Z" fill="#152118"/>
<path opacity="0.6667" d="M218.543 530.446C291.016 530.446 349.768 501.065 349.768 464.821C349.768 428.578 291.016 399.196 218.543 399.196C146.069 399.196 87.3174 428.578 87.3174 464.821C87.3174 501.065 146.069 530.446 218.543 530.446Z" fill="#152118"/>
<path opacity="0.7143" d="M219.387 530.028C291.861 530.028 350.613 500.646 350.613 464.403C350.613 428.159 291.861 398.778 219.387 398.778C146.913 398.778 88.1619 428.159 88.1619 464.403C88.1619 500.646 146.913 530.028 219.387 530.028Z" fill="#152118"/>
<path opacity="0.7619" d="M220.224 529.601C292.697 529.601 351.449 500.22 351.449 463.977C351.449 427.733 292.697 398.352 220.224 398.352C147.75 398.352 88.9983 427.733 88.9983 463.977C88.9983 500.22 147.75 529.601 220.224 529.601Z" fill="#152118"/>
<path opacity="0.8095" d="M221.068 529.183C293.542 529.183 352.293 499.802 352.293 463.558C352.293 427.315 293.542 397.933 221.068 397.933C148.594 397.933 89.8428 427.315 89.8428 463.558C89.8428 499.802 148.594 529.183 221.068 529.183Z" fill="#152118"/>
<path opacity="0.8571" d="M221.905 528.765C294.379 528.765 353.13 499.383 353.13 463.14C353.13 426.896 294.379 397.515 221.905 397.515C149.431 397.515 90.6794 426.896 90.6794 463.14C90.6794 499.383 149.431 528.765 221.905 528.765Z" fill="#152118"/>
<path opacity="0.9048" d="M222.749 528.346C295.223 528.346 353.975 498.965 353.975 462.722C353.975 426.478 295.223 397.097 222.749 397.097C150.276 397.097 91.5239 426.478 91.5239 462.722C91.5239 498.965 150.276 528.346 222.749 528.346Z" fill="#152118"/>
<path opacity="0.9524" d="M223.594 527.92C296.067 527.92 354.819 498.539 354.819 462.295C354.819 426.052 296.067 396.671 223.594 396.671C151.12 396.671 92.3684 426.052 92.3684 462.295C92.3684 498.539 151.12 527.92 223.594 527.92Z" fill="#152118"/>
<path d="M224.43 527.502C296.904 527.502 355.656 498.121 355.656 461.877C355.656 425.634 296.904 396.252 224.43 396.252C151.957 396.252 93.2051 425.634 93.2051 461.877C93.2051 498.121 151.957 527.502 224.43 527.502Z" fill="#152118"/>
<path d="M224.615 499.616C296.987 499.616 355.656 470.274 355.656 434.08C355.656 397.885 296.987 368.543 224.615 368.543C152.244 368.543 93.575 397.885 93.575 434.08C93.575 470.274 152.244 499.616 224.615 499.616Z" fill="url(#paint4_linear_40_1085)"/>
<path d="M317.273 480.417C266.102 506.01 183.128 506.01 131.957 480.417C106.372 467.62 93.575 450.85 93.575 434.08V462.496C93.575 479.267 106.372 496.037 131.957 508.834C183.128 534.427 266.102 534.427 317.273 508.834C342.859 496.037 355.656 479.267 355.656 462.496V434.08C355.656 450.85 342.859 467.62 317.273 480.417Z" fill="url(#paint5_linear_40_1085)"/>
<path d="M224.615 486.498C282.505 486.498 329.435 463.029 329.435 434.08C329.435 405.13 282.505 381.662 224.615 381.662C166.725 381.662 119.796 405.13 119.796 434.08C119.796 463.029 166.725 486.498 224.615 486.498Z" fill="url(#paint6_linear_40_1085)"/>
<path d="M150.497 414.036C191.429 393.566 257.802 393.566 298.734 414.036C314.852 422.095 324.601 432.133 328.019 442.59C333.287 426.503 323.539 409.419 298.734 397.009C257.802 376.538 191.429 376.538 150.497 397.009C125.684 409.419 115.943 426.495 121.212 442.59C124.63 432.133 134.378 422.095 150.497 414.036Z" fill="#3D6646"/>
<path opacity="0.32" d="M355.623 84.7837H93.6071V431.544C92.8912 448.772 105.672 466.113 131.957 479.256C183.128 504.85 266.102 504.85 317.281 479.256C343.567 466.105 356.347 448.764 355.631 431.535V84.7837H355.623Z" fill="url(#paint7_linear_40_1085)"/>
<path opacity="0.32" d="M329.813 0H119.418V431.431C118.839 445.265 129.102 459.188 150.207 469.741C191.3 490.291 257.922 490.291 299.015 469.741C320.121 459.18 330.384 445.257 329.805 431.423V0H329.813Z" fill="url(#paint8_linear_40_1085)"/>
<path d="M161.812 394.812L123.529 407.567L98 382.048L136.293 369.284L161.812 394.812Z" fill="#4AB397"/>
<path d="M174.567 356.519L161.812 394.812L136.293 369.284L149.048 331L174.567 356.519Z" fill="#3F866C"/>
<path d="M149.048 331L136.293 369.284L98 382.048L110.764 343.755L149.048 331Z" fill="#72B17F"/>
<path d="M305.831 150.181L296 120.67L315.67 101L325.501 130.51L305.831 150.181Z" fill="#5CB488"/>
<path d="M335.341 160.011L305.831 150.181L325.501 130.51L355.011 140.341L335.341 160.011Z" fill="#49B19A"/>
<path d="M355.011 140.341L325.501 130.51L315.67 101L345.18 110.831L355.011 140.341Z" fill="#79B786"/>
<path d="M154.373 166.856L170.491 172.229L181.229 161.484L165.119 156.119L154.373 166.856Z" fill="#E3E5F9"/>
<path d="M149 150.746L154.373 166.856L165.119 156.119L159.746 140L149 150.746Z" fill="#BCC9F8"/>
<path d="M159.746 140L165.119 156.119L181.229 161.483L175.864 145.373L159.746 140Z" fill="url(#paint9_linear_40_1085)"/>
<path d="M273.002 346.013L279 328.007L267.004 316L261.006 334.006L273.002 346.013Z" fill="#E3E5F9"/>
<path d="M254.996 352.011L273.002 346.013L261.006 334.006L243 340.004L254.996 352.011Z" fill="#BCC9F8"/>
<path d="M243 340.004L261.006 334.006L267.004 316L248.998 321.998L243 340.004Z" fill="url(#paint10_linear_40_1085)"/>
<defs>
<filter id="filter0_dd_40_1085" x="113.088" y="152.162" width="219.247" height="179.921" filterUnits="userSpaceOnUse" color-interpolation-filters="sRGB">
<feFlood flood-opacity="0" result="BackgroundImageFix"/>
<feColorMatrix in="SourceAlpha" type="matrix" values="0 0 0 0 0 0 0 0 0 0 0 0 0 0 0 0 0 0 127 0" result="hardAlpha"/>
<feOffset dx="-2" dy="-2"/>
<feComposite in2="hardAlpha" operator="out"/>
<feColorMatrix type="matrix" values="0 0 0 0 0.239216 0 0 0 0 0.4 0 0 0 0 0.27451 0 0 0 1 0"/>
<feBlend mode="normal" in2="BackgroundImageFix" result="effect1_dropShadow_40_1085"/>
<feColorMatrix in="SourceAlpha" type="matrix" values="0 0 0 0 0 0 0 0 0 0 0 0 0 0 0 0 0 0 127 0" result="hardAlpha"/>
<feOffset dx="-4" dy="-4"/>
<feComposite in2="hardAlpha" operator="out"/>
<feColorMatrix type="matrix" values="0 0 0 0 0.239216 0 0 0 0 0.4 0 0 0 0 0.27451 0 0 0 1 0"/>
<feBlend mode="normal" in2="effect1_dropShadow_40_1085" result="effect2_dropShadow_40_1085"/>
<feBlend mode="normal" in="SourceGraphic" in2="effect2_dropShadow_40_1085" result="shape"/>
</filter>
<linearGradient id="paint0_linear_40_1085" x1="4.48056" y1="574.227" x2="451.706" y2="574.227" gradientUnits="userSpaceOnUse">
<stop stop-color="#18212A"/>
<stop offset="0.5" stop-color="#182029"/>
<stop offset="1" stop-color="#18212A"/>
</linearGradient>
<linearGradient id="paint1_linear_40_1085" x1="224" y1="515" x2="224" y2="939" gradientUnits="userSpaceOnUse">
<stop stop-color="#18222E" stop-opacity="0"/>
<stop offset="0.696255" stop-color="#131A23"/>
</linearGradient>
<linearGradient id="paint2_linear_40_1085" x1="56.9231" y1="528.302" x2="392.316" y2="528.302" gradientUnits="userSpaceOnUse">
<stop stop-color="#2B3A4B"/>
<stop offset="0.35" stop-color="#202C3B"/>
<stop offset="0.65" stop-color="#34485A"/>
<stop offset="1" stop-color="#23352A"/>
</linearGradient>
<linearGradient id="paint3_linear_40_1085" x1="104.808" y1="531.989" x2="200.684" y2="340.275" gradientUnits="userSpaceOnUse">
<stop stop-color="#233828"/>
<stop offset="1" stop-color="#3D6646"/>
</linearGradient>
<linearGradient id="paint4_linear_40_1085" x1="131.956" y1="480.415" x2="206.107" y2="332.143" gradientUnits="userSpaceOnUse">
<stop stop-color="#E8EAFB"/>
<stop offset="0.0001" stop-color="#3D6646"/>
<stop offset="1" stop-color="#599566"/>
</linearGradient>
<linearGradient id="paint5_linear_40_1085" x1="94.9215" y1="481.05" x2="354.315" y2="481.05" gradientUnits="userSpaceOnUse">
<stop stop-color="#2C3B4D"/>
<stop offset="0.35" stop-color="#18222E"/>
<stop offset="0.65" stop-color="#374B62"/>
<stop offset="1" stop-color="#203224"/>
</linearGradient>
<linearGradient id="paint6_linear_40_1085" x1="119.796" y1="434.076" x2="329.434" y2="434.076" gradientUnits="userSpaceOnUse">
<stop stop-color="#3D6646"/>
<stop offset="1" stop-color="#599566"/>
</linearGradient>
<linearGradient id="paint7_linear_40_1085" x1="224.615" y1="81.6935" x2="224.615" y2="497.172" gradientUnits="userSpaceOnUse">
<stop stop-color="#18222E" stop-opacity="0"/>
<stop offset="1" stop-color="#34B2A7"/>
</linearGradient>
<linearGradient id="paint8_linear_40_1085" x1="224.615" y1="-3.6238" x2="224.615" y2="483.659" gradientUnits="userSpaceOnUse">
<stop stop-color="#18222E" stop-opacity="0"/>
<stop offset="1" stop-color="#34B2A7"/>
</linearGradient>
<linearGradient id="paint9_linear_40_1085" x1="181.232" y1="161.488" x2="159.745" y2="140" gradientUnits="userSpaceOnUse">
<stop stop-color="#E8EAFB"/>
<stop offset="1" stop-color="white"/>
</linearGradient>
<linearGradient id="paint10_linear_40_1085" x1="267.001" y1="316.003" x2="242.996" y2="340.008" gradientUnits="userSpaceOnUse">
<stop stop-color="#E8EAFB"/>
<stop offset="1" stop-color="white"/>
</linearGradient>
</defs>
</svg>
