<svg width="674" height="311" viewBox="0 0 674 311" fill="none" xmlns="http://www.w3.org/2000/svg">
<path d="M44 0.199999V11.5H14.9V29.4H37.2V40.5H14.9V70H0.900001V0.199999H44ZM50.3273 42.1C50.3273 36.5 51.4273 31.5333 53.6273 27.2C55.894 22.8667 58.9273 19.5333 62.7273 17.2C66.594 14.8667 70.894 13.7 75.6273 13.7C79.7607 13.7 83.3607 14.5333 86.4273 16.2C89.5607 17.8667 92.0607 19.9667 93.9273 22.5V14.6H108.027V70H93.9273V61.9C92.1273 64.5 89.6273 66.6667 86.4273 68.4C83.294 70.0667 79.6607 70.9 75.5273 70.9C70.8607 70.9 66.594 69.7 62.7273 67.3C58.9273 64.9 55.894 61.5333 53.6273 57.2C51.4273 52.8 50.3273 47.7667 50.3273 42.1ZM93.9273 42.3C93.9273 38.9 93.2607 36 91.9273 33.6C90.594 31.1333 88.794 29.2667 86.5273 28C84.2607 26.6667 81.8273 26 79.2273 26C76.6273 26 74.2273 26.6333 72.0273 27.9C69.8273 29.1667 68.0273 31.0333 66.6273 33.5C65.294 35.9 64.6273 38.7667 64.6273 42.1C64.6273 45.4333 65.294 48.3667 66.6273 50.9C68.0273 53.3667 69.8273 55.2667 72.0273 56.6C74.294 57.9333 76.694 58.6 79.2273 58.6C81.8273 58.6 84.2607 57.9667 86.5273 56.7C88.794 55.3667 90.594 53.5 91.9273 51.1C93.2607 48.6333 93.9273 45.7 93.9273 42.3ZM142.901 70.9C138.367 70.9 134.301 70.1 130.701 68.5C127.101 66.8333 124.234 64.6 122.101 61.8C120.034 59 118.901 55.9 118.701 52.5H132.801C133.067 54.6333 134.101 56.4 135.901 57.8C137.767 59.2 140.067 59.9 142.801 59.9C145.467 59.9 147.534 59.3667 149.001 58.3C150.534 57.2333 151.301 55.8667 151.301 54.2C151.301 52.4 150.367 51.0667 148.501 50.2C146.701 49.2667 143.801 48.2667 139.801 47.2C135.667 46.2 132.267 45.1667 129.601 44.1C127.001 43.0333 124.734 41.4 122.801 39.2C120.934 37 120.001 34.0333 120.001 30.3C120.001 27.2333 120.867 24.4333 122.601 21.9C124.401 19.3667 126.934 17.3667 130.201 15.9C133.534 14.4333 137.434 13.7 141.901 13.7C148.501 13.7 153.767 15.3667 157.701 18.7C161.634 21.9667 163.801 26.4 164.201 32H150.801C150.601 29.8 149.667 28.0667 148.001 26.8C146.401 25.4667 144.234 24.8 141.501 24.8C138.967 24.8 137.001 25.2667 135.601 26.2C134.267 27.1333 133.601 28.4333 133.601 30.1C133.601 31.9667 134.534 33.4 136.401 34.4C138.267 35.3333 141.167 36.3 145.101 37.3C149.101 38.3 152.401 39.3333 155.001 40.4C157.601 41.4667 159.834 43.1333 161.701 45.4C163.634 47.6 164.634 50.5333 164.701 54.2C164.701 57.4 163.801 60.2667 162.001 62.8C160.267 65.3333 157.734 67.3333 154.401 68.8C151.134 70.2 147.301 70.9 142.901 70.9ZM192.493 26.1V52.9C192.493 54.7667 192.926 56.1333 193.793 57C194.726 57.8 196.26 58.2 198.393 58.2H204.893V70H196.093C184.293 70 178.393 64.2667 178.393 52.8V26.1H171.793V14.6H178.393V0.899996H192.493V14.6H204.893V26.1H192.493ZM221.163 70.7C218.629 70.7 216.529 69.9333 214.863 68.4C213.263 66.8 212.463 64.8333 212.463 62.5C212.463 60.1667 213.263 58.2333 214.863 56.7C216.529 55.1 218.629 54.3 221.163 54.3C223.629 54.3 225.663 55.1 227.263 56.7C228.863 58.2333 229.663 60.1667 229.663 62.5C229.663 64.8333 228.863 66.8 227.263 68.4C225.663 69.9333 223.629 70.7 221.163 70.7ZM36.9 190L21.5 162.8H14.9V190H0.900001V120.2H27.1C32.5 120.2 37.1 121.167 40.9 123.1C44.7 124.967 47.5333 127.533 49.4 130.8C51.3333 134 52.3 137.6 52.3 141.6C52.3 146.2 50.9667 150.367 48.3 154.1C45.6333 157.767 41.6667 160.3 36.4 161.7L53.1 190H36.9ZM14.9 152.3H26.6C30.4 152.3 33.2333 151.4 35.1 149.6C36.9667 147.733 37.9 145.167 37.9 141.9C37.9 138.7 36.9667 136.233 35.1 134.5C33.2333 132.7 30.4 131.8 26.6 131.8H14.9V152.3ZM116.463 161.1C116.463 163.1 116.329 164.9 116.063 166.5H75.5625C75.8958 170.5 77.2958 173.633 79.7625 175.9C82.2292 178.167 85.2625 179.3 88.8625 179.3C94.0625 179.3 97.7625 177.067 99.9625 172.6H115.063C113.463 177.933 110.396 182.333 105.863 185.8C101.329 189.2 95.7625 190.9 89.1625 190.9C83.8292 190.9 79.0292 189.733 74.7625 187.4C70.5625 185 67.2625 181.633 64.8625 177.3C62.5292 172.967 61.3625 167.967 61.3625 162.3C61.3625 156.567 62.5292 151.533 64.8625 147.2C67.1958 142.867 70.4625 139.533 74.6625 137.2C78.8625 134.867 83.6958 133.7 89.1625 133.7C94.4292 133.7 99.1292 134.833 103.263 137.1C107.463 139.367 110.696 142.6 112.963 146.8C115.296 150.933 116.463 155.7 116.463 161.1ZM101.963 157.1C101.896 153.5 100.596 150.633 98.0625 148.5C95.5292 146.3 92.4292 145.2 88.7625 145.2C85.2958 145.2 82.3625 146.267 79.9625 148.4C77.6292 150.467 76.1958 153.367 75.6625 157.1H101.963ZM140.681 116V190H126.681V116H140.681ZM161.613 128C159.147 128 157.08 127.233 155.413 125.7C153.813 124.1 153.013 122.133 153.013 119.8C153.013 117.467 153.813 115.533 155.413 114C157.08 112.4 159.147 111.6 161.613 111.6C164.08 111.6 166.113 112.4 167.713 114C169.38 115.533 170.213 117.467 170.213 119.8C170.213 122.133 169.38 124.1 167.713 125.7C166.113 127.233 164.08 128 161.613 128ZM168.513 134.6V190H154.513V134.6H168.513ZM178.745 162.1C178.745 156.5 179.845 151.533 182.045 147.2C184.312 142.867 187.345 139.533 191.145 137.2C195.012 134.867 199.312 133.7 204.045 133.7C208.179 133.7 211.779 134.533 214.845 136.2C217.979 137.867 220.479 139.967 222.345 142.5V134.6H236.445V190H222.345V181.9C220.545 184.5 218.045 186.667 214.845 188.4C211.712 190.067 208.079 190.9 203.945 190.9C199.279 190.9 195.012 189.7 191.145 187.3C187.345 184.9 184.312 181.533 182.045 177.2C179.845 172.8 178.745 167.767 178.745 162.1ZM222.345 162.3C222.345 158.9 221.679 156 220.345 153.6C219.012 151.133 217.212 149.267 214.945 148C212.679 146.667 210.245 146 207.645 146C205.045 146 202.645 146.633 200.445 147.9C198.245 149.167 196.445 151.033 195.045 153.5C193.712 155.9 193.045 158.767 193.045 162.1C193.045 165.433 193.712 168.367 195.045 170.9C196.445 173.367 198.245 175.267 200.445 176.6C202.712 177.933 205.112 178.6 207.645 178.6C210.245 178.6 212.679 177.967 214.945 176.7C217.212 175.367 219.012 173.5 220.345 171.1C221.679 168.633 222.345 165.7 222.345 162.3ZM264.119 142.7C265.919 140.033 268.385 137.867 271.519 136.2C274.719 134.533 278.352 133.7 282.419 133.7C287.152 133.7 291.419 134.867 295.219 137.2C299.085 139.533 302.119 142.867 304.319 147.2C306.585 151.467 307.719 156.433 307.719 162.1C307.719 167.767 306.585 172.8 304.319 177.2C302.119 181.533 299.085 184.9 295.219 187.3C291.419 189.7 287.152 190.9 282.419 190.9C278.285 190.9 274.652 190.1 271.519 188.5C268.452 186.833 265.985 184.7 264.119 182.1V190H250.119V116H264.119V142.7ZM293.419 162.1C293.419 158.767 292.719 155.9 291.319 153.5C289.985 151.033 288.185 149.167 285.919 147.9C283.719 146.633 281.319 146 278.719 146C276.185 146 273.785 146.667 271.519 148C269.319 149.267 267.519 151.133 266.119 153.6C264.785 156.067 264.119 158.967 264.119 162.3C264.119 165.633 264.785 168.533 266.119 171C267.519 173.467 269.319 175.367 271.519 176.7C273.785 177.967 276.185 178.6 278.719 178.6C281.319 178.6 283.719 177.933 285.919 176.6C288.185 175.267 289.985 173.367 291.319 170.9C292.719 168.433 293.419 165.5 293.419 162.1ZM331.892 116V190H317.892V116H331.892ZM397.224 161.1C397.224 163.1 397.091 164.9 396.824 166.5H356.324C356.658 170.5 358.058 173.633 360.524 175.9C362.991 178.167 366.024 179.3 369.624 179.3C374.824 179.3 378.524 177.067 380.724 172.6H395.824C394.224 177.933 391.158 182.333 386.624 185.8C382.091 189.2 376.524 190.9 369.924 190.9C364.591 190.9 359.791 189.733 355.524 187.4C351.324 185 348.024 181.633 345.624 177.3C343.291 172.967 342.124 167.967 342.124 162.3C342.124 156.567 343.291 151.533 345.624 147.2C347.958 142.867 351.224 139.533 355.424 137.2C359.624 134.867 364.458 133.7 369.924 133.7C375.191 133.7 379.891 134.833 384.024 137.1C388.224 139.367 391.458 142.6 393.724 146.8C396.058 150.933 397.224 155.7 397.224 161.1ZM382.724 157.1C382.658 153.5 381.358 150.633 378.824 148.5C376.291 146.3 373.191 145.2 369.524 145.2C366.058 145.2 363.124 146.267 360.724 148.4C358.391 150.467 356.958 153.367 356.424 157.1H382.724ZM413.643 190.7C411.11 190.7 409.01 189.933 407.343 188.4C405.743 186.8 404.943 184.833 404.943 182.5C404.943 180.167 405.743 178.233 407.343 176.7C409.01 175.1 411.11 174.3 413.643 174.3C416.11 174.3 418.143 175.1 419.743 176.7C421.343 178.233 422.143 180.167 422.143 182.5C422.143 184.833 421.343 186.8 419.743 188.4C418.143 189.933 416.11 190.7 413.643 190.7ZM25.3 240.2C32.6333 240.2 39.0667 241.633 44.6 244.5C50.2 247.367 54.5 251.467 57.5 256.8C60.5667 262.067 62.1 268.2 62.1 275.2C62.1 282.2 60.5667 288.333 57.5 293.6C54.5 298.8 50.2 302.833 44.6 305.7C39.0667 308.567 32.6333 310 25.3 310H0.900001V240.2H25.3ZM24.8 298.1C32.1333 298.1 37.8 296.1 41.8 292.1C45.8 288.1 47.8 282.467 47.8 275.2C47.8 267.933 45.8 262.267 41.8 258.2C37.8 254.067 32.1333 252 24.8 252H14.9V298.1H24.8ZM124.08 281.1C124.08 283.1 123.946 284.9 123.68 286.5H83.1797C83.513 290.5 84.913 293.633 87.3797 295.9C89.8464 298.167 92.8797 299.3 96.4797 299.3C101.68 299.3 105.38 297.067 107.58 292.6H122.68C121.08 297.933 118.013 302.333 113.48 305.8C108.946 309.2 103.38 310.9 96.7797 310.9C91.4464 310.9 86.6464 309.733 82.3797 307.4C78.1797 305 74.8797 301.633 72.4797 297.3C70.1464 292.967 68.9797 287.967 68.9797 282.3C68.9797 276.567 70.1464 271.533 72.4797 267.2C74.813 262.867 78.0797 259.533 82.2797 257.2C86.4797 254.867 91.313 253.7 96.7797 253.7C102.046 253.7 106.746 254.833 110.88 257.1C115.08 259.367 118.313 262.6 120.58 266.8C122.913 270.933 124.08 275.7 124.08 281.1ZM109.58 277.1C109.513 273.5 108.213 270.633 105.68 268.5C103.146 266.3 100.046 265.2 96.3797 265.2C92.913 265.2 89.9797 266.267 87.5797 268.4C85.2464 270.467 83.813 273.367 83.2797 277.1H109.58ZM159.698 266.1H149.998V310H135.798V266.1H129.498V254.6H135.798V251.8C135.798 245 137.732 240 141.598 236.8C145.465 233.6 151.298 232.1 159.098 232.3V244.1C155.698 244.033 153.332 244.6 151.998 245.8C150.665 247 149.998 249.167 149.998 252.3V254.6H159.698V266.1ZM175.871 248C173.404 248 171.338 247.233 169.671 245.7C168.071 244.1 167.271 242.133 167.271 239.8C167.271 237.467 168.071 235.533 169.671 234C171.338 232.4 173.404 231.6 175.871 231.6C178.338 231.6 180.371 232.4 181.971 234C183.638 235.533 184.471 237.467 184.471 239.8C184.471 242.133 183.638 244.1 181.971 245.7C180.371 247.233 178.338 248 175.871 248ZM182.771 254.6V310H168.771V254.6H182.771ZM271.331 261.8C271.331 265.533 270.431 269.033 268.631 272.3C266.898 275.567 264.131 278.2 260.331 280.2C256.598 282.2 251.865 283.2 246.131 283.2H234.431V310H220.431V240.2H246.131C251.531 240.2 256.131 241.133 259.931 243C263.731 244.867 266.565 247.433 268.431 250.7C270.365 253.967 271.331 257.667 271.331 261.8ZM245.531 271.9C249.398 271.9 252.265 271.033 254.131 269.3C255.998 267.5 256.931 265 256.931 261.8C256.931 255 253.131 251.6 245.531 251.6H234.431V271.9H245.531ZM295.271 236V310H281.271V236H295.271ZM305.503 282.1C305.503 276.5 306.603 271.533 308.803 267.2C311.07 262.867 314.103 259.533 317.903 257.2C321.77 254.867 326.07 253.7 330.803 253.7C334.936 253.7 338.536 254.533 341.603 256.2C344.736 257.867 347.236 259.967 349.103 262.5V254.6H363.203V310H349.103V301.9C347.303 304.5 344.803 306.667 341.603 308.4C338.47 310.067 334.836 310.9 330.703 310.9C326.036 310.9 321.77 309.7 317.903 307.3C314.103 304.9 311.07 301.533 308.803 297.2C306.603 292.8 305.503 287.767 305.503 282.1ZM349.103 282.3C349.103 278.9 348.436 276 347.103 273.6C345.77 271.133 343.97 269.267 341.703 268C339.436 266.667 337.003 266 334.403 266C331.803 266 329.403 266.633 327.203 267.9C325.003 269.167 323.203 271.033 321.803 273.5C320.47 275.9 319.803 278.767 319.803 282.1C319.803 285.433 320.47 288.367 321.803 290.9C323.203 293.367 325.003 295.267 327.203 296.6C329.47 297.933 331.87 298.6 334.403 298.6C337.003 298.6 339.436 297.967 341.703 296.7C343.97 295.367 345.77 293.5 347.103 291.1C348.436 288.633 349.103 285.7 349.103 282.3ZM393.177 266.1V292.9C393.177 294.767 393.61 296.133 394.477 297C395.41 297.8 396.943 298.2 399.077 298.2H405.577V310H396.777C384.977 310 379.077 304.267 379.077 292.8V266.1H372.477V254.6H379.077V240.9H393.177V254.6H405.577V266.1H393.177ZM441.046 266.1H431.346V310H417.146V266.1H410.846V254.6H417.146V251.8C417.146 245 419.079 240 422.946 236.8C426.813 233.6 432.646 232.1 440.446 232.3V244.1C437.046 244.033 434.679 244.6 433.346 245.8C432.013 247 431.346 249.167 431.346 252.3V254.6H441.046V266.1ZM474.719 310.9C469.385 310.9 464.585 309.733 460.319 307.4C456.052 305 452.685 301.633 450.219 297.3C447.819 292.967 446.619 287.967 446.619 282.3C446.619 276.633 447.852 271.633 450.319 267.3C452.852 262.967 456.285 259.633 460.619 257.3C464.952 254.9 469.785 253.7 475.119 253.7C480.452 253.7 485.285 254.9 489.619 257.3C493.952 259.633 497.352 262.967 499.819 267.3C502.352 271.633 503.619 276.633 503.619 282.3C503.619 287.967 502.319 292.967 499.719 297.3C497.185 301.633 493.719 305 489.319 307.4C484.985 309.733 480.119 310.9 474.719 310.9ZM474.719 298.7C477.252 298.7 479.619 298.1 481.819 296.9C484.085 295.633 485.885 293.767 487.219 291.3C488.552 288.833 489.219 285.833 489.219 282.3C489.219 277.033 487.819 273 485.019 270.2C482.285 267.333 478.919 265.9 474.919 265.9C470.919 265.9 467.552 267.333 464.819 270.2C462.152 273 460.819 277.033 460.819 282.3C460.819 287.567 462.119 291.633 464.719 294.5C467.385 297.3 470.719 298.7 474.719 298.7ZM527.888 263.2C529.688 260.267 532.022 257.967 534.888 256.3C537.822 254.633 541.155 253.8 544.888 253.8V268.5H541.188C536.788 268.5 533.455 269.533 531.188 271.6C528.988 273.667 527.888 277.267 527.888 282.4V310H513.888V254.6H527.888V263.2ZM623.118 253.8C629.918 253.8 635.385 255.9 639.518 260.1C643.718 264.233 645.818 270.033 645.818 277.5V310H631.818V279.4C631.818 275.067 630.718 271.767 628.518 269.5C626.318 267.167 623.318 266 619.518 266C615.718 266 612.685 267.167 610.418 269.5C608.218 271.767 607.118 275.067 607.118 279.4V310H593.118V279.4C593.118 275.067 592.018 271.767 589.818 269.5C587.618 267.167 584.618 266 580.818 266C576.951 266 573.885 267.167 571.618 269.5C569.418 271.767 568.318 275.067 568.318 279.4V310H554.318V254.6H568.318V261.3C570.118 258.967 572.418 257.133 575.218 255.8C578.085 254.467 581.218 253.8 584.618 253.8C588.951 253.8 592.818 254.733 596.218 256.6C599.618 258.4 602.251 261 604.118 264.4C605.918 261.2 608.518 258.633 611.918 256.7C615.385 254.767 619.118 253.8 623.118 253.8ZM665.303 310.7C662.77 310.7 660.67 309.933 659.003 308.4C657.403 306.8 656.603 304.833 656.603 302.5C656.603 300.167 657.403 298.233 659.003 296.7C660.67 295.1 662.77 294.3 665.303 294.3C667.77 294.3 669.803 295.1 671.403 296.7C673.003 298.233 673.803 300.167 673.803 302.5C673.803 304.833 673.003 306.8 671.403 308.4C669.803 309.933 667.77 310.7 665.303 310.7Z" fill="white"/>
</svg>
