<svg width="287" height="36" viewBox="0 0 287 36" fill="none" xmlns="http://www.w3.org/2000/svg">
<line y1="17" x2="80" y2="17" stroke="#6CB47B" stroke-width="2"/>
<path d="M101.905 14.288C101.905 15.136 101.705 15.936 101.305 16.688C100.905 17.44 100.265 18.056 99.3854 18.536C98.5054 19 97.3774 19.232 96.0014 19.232H92.9774V26H90.2414V9.32H96.0014C97.2814 9.32 98.3614 9.544 99.2414 9.992C100.137 10.424 100.801 11.016 101.233 11.768C101.681 12.52 101.905 13.36 101.905 14.288ZM96.0014 17C97.0414 17 97.8174 16.768 98.3294 16.304C98.8414 15.824 99.0974 15.152 99.0974 14.288C99.0974 12.464 98.0654 11.552 96.0014 11.552H92.9774V17H96.0014ZM116.635 19.064C116.635 19.56 116.603 20.008 116.539 20.408H106.435C106.515 21.464 106.907 22.312 107.611 22.952C108.315 23.592 109.179 23.912 110.203 23.912C111.675 23.912 112.715 23.296 113.323 22.064H116.275C115.875 23.28 115.147 24.28 114.091 25.064C113.051 25.832 111.755 26.216 110.203 26.216C108.939 26.216 107.803 25.936 106.795 25.376C105.803 24.8 105.019 24 104.443 22.976C103.883 21.936 103.603 20.736 103.603 19.376C103.603 18.016 103.875 16.824 104.419 15.8C104.979 14.76 105.755 13.96 106.747 13.4C107.755 12.84 108.907 12.56 110.203 12.56C111.451 12.56 112.563 12.832 113.539 13.376C114.515 13.92 115.275 14.688 115.819 15.68C116.363 16.656 116.635 17.784 116.635 19.064ZM113.779 18.2C113.763 17.192 113.403 16.384 112.699 15.776C111.995 15.168 111.123 14.864 110.083 14.864C109.139 14.864 108.331 15.168 107.659 15.776C106.987 16.368 106.587 17.176 106.459 18.2H113.779ZM122.519 15.008V22.328C122.519 22.824 122.631 23.184 122.855 23.408C123.095 23.616 123.495 23.72 124.055 23.72H125.735V26H123.575C122.343 26 121.399 25.712 120.743 25.136C120.087 24.56 119.759 23.624 119.759 22.328V15.008H118.199V12.776H119.759V9.488H122.519V12.776H125.735V15.008H122.519ZM130.993 14.696C131.393 14.024 131.921 13.504 132.577 13.136C133.249 12.752 134.041 12.56 134.953 12.56V15.392H134.257C133.185 15.392 132.369 15.664 131.809 16.208C131.265 16.752 130.993 17.696 130.993 19.04V26H128.257V12.776H130.993V14.696ZM143.204 26.216C141.956 26.216 140.828 25.936 139.82 25.376C138.812 24.8 138.02 24 137.444 22.976C136.868 21.936 136.58 20.736 136.58 19.376C136.58 18.032 136.876 16.84 137.468 15.8C138.06 14.76 138.868 13.96 139.892 13.4C140.916 12.84 142.06 12.56 143.324 12.56C144.588 12.56 145.732 12.84 146.756 13.4C147.78 13.96 148.588 14.76 149.18 15.8C149.772 16.84 150.068 18.032 150.068 19.376C150.068 20.72 149.764 21.912 149.156 22.952C148.548 23.992 147.716 24.8 146.66 25.376C145.62 25.936 144.468 26.216 143.204 26.216ZM143.204 23.84C143.908 23.84 144.564 23.672 145.172 23.336C145.796 23 146.3 22.496 146.684 21.824C147.068 21.152 147.26 20.336 147.26 19.376C147.26 18.416 147.076 17.608 146.708 16.952C146.34 16.28 145.852 15.776 145.244 15.44C144.636 15.104 143.98 14.936 143.276 14.936C142.572 14.936 141.916 15.104 141.308 15.44C140.716 15.776 140.244 16.28 139.892 16.952C139.54 17.608 139.364 18.416 139.364 19.376C139.364 20.8 139.724 21.904 140.444 22.688C141.18 23.456 142.1 23.84 143.204 23.84ZM164.749 12.776V26H162.013V24.44C161.581 24.984 161.013 25.416 160.309 25.736C159.621 26.04 158.885 26.192 158.101 26.192C157.061 26.192 156.125 25.976 155.293 25.544C154.477 25.112 153.829 24.472 153.349 23.624C152.885 22.776 152.653 21.752 152.653 20.552V12.776H155.365V20.144C155.365 21.328 155.661 22.24 156.253 22.88C156.845 23.504 157.653 23.816 158.677 23.816C159.701 23.816 160.509 23.504 161.101 22.88C161.709 22.24 162.013 21.328 162.013 20.144V12.776H164.749ZM173.159 26.216C172.119 26.216 171.183 26.032 170.351 25.664C169.535 25.28 168.887 24.768 168.407 24.128C167.927 23.472 167.671 22.744 167.639 21.944H170.471C170.519 22.504 170.783 22.976 171.263 23.36C171.759 23.728 172.375 23.912 173.111 23.912C173.879 23.912 174.471 23.768 174.887 23.48C175.319 23.176 175.535 22.792 175.535 22.328C175.535 21.832 175.295 21.464 174.815 21.224C174.351 20.984 173.607 20.72 172.583 20.432C171.591 20.16 170.783 19.896 170.159 19.64C169.535 19.384 168.991 18.992 168.527 18.464C168.079 17.936 167.855 17.24 167.855 16.376C167.855 15.672 168.063 15.032 168.479 14.456C168.895 13.864 169.487 13.4 170.255 13.064C171.039 12.728 171.935 12.56 172.943 12.56C174.447 12.56 175.655 12.944 176.567 13.712C177.495 14.464 177.991 15.496 178.055 16.808H175.319C175.271 16.216 175.031 15.744 174.599 15.392C174.167 15.04 173.583 14.864 172.847 14.864C172.127 14.864 171.575 15 171.191 15.272C170.807 15.544 170.615 15.904 170.615 16.352C170.615 16.704 170.743 17 170.999 17.24C171.255 17.48 171.567 17.672 171.935 17.816C172.303 17.944 172.847 18.112 173.567 18.32C174.527 18.576 175.311 18.84 175.919 19.112C176.543 19.368 177.079 19.752 177.527 20.264C177.975 20.776 178.207 21.456 178.223 22.304C178.223 23.056 178.015 23.728 177.599 24.32C177.183 24.912 176.591 25.376 175.823 25.712C175.071 26.048 174.183 26.216 173.159 26.216ZM193.155 12.776V26H190.419V24.44C189.987 24.984 189.419 25.416 188.715 25.736C188.027 26.04 187.291 26.192 186.507 26.192C185.467 26.192 184.531 25.976 183.699 25.544C182.883 25.112 182.235 24.472 181.755 23.624C181.291 22.776 181.059 21.752 181.059 20.552V12.776H183.771V20.144C183.771 21.328 184.067 22.24 184.659 22.88C185.251 23.504 186.059 23.816 187.083 23.816C188.107 23.816 188.915 23.504 189.507 22.88C190.115 22.24 190.419 21.328 190.419 20.144V12.776H193.155ZM201.565 26.216C200.525 26.216 199.589 26.032 198.757 25.664C197.941 25.28 197.293 24.768 196.813 24.128C196.333 23.472 196.077 22.744 196.045 21.944H198.877C198.925 22.504 199.189 22.976 199.669 23.36C200.165 23.728 200.781 23.912 201.517 23.912C202.285 23.912 202.877 23.768 203.293 23.48C203.725 23.176 203.941 22.792 203.941 22.328C203.941 21.832 203.701 21.464 203.221 21.224C202.757 20.984 202.013 20.72 200.989 20.432C199.997 20.16 199.189 19.896 198.565 19.64C197.941 19.384 197.397 18.992 196.933 18.464C196.485 17.936 196.261 17.24 196.261 16.376C196.261 15.672 196.469 15.032 196.885 14.456C197.301 13.864 197.893 13.4 198.661 13.064C199.445 12.728 200.341 12.56 201.349 12.56C202.853 12.56 204.061 12.944 204.973 13.712C205.901 14.464 206.397 15.496 206.461 16.808H203.725C203.677 16.216 203.437 15.744 203.005 15.392C202.573 15.04 201.989 14.864 201.253 14.864C200.533 14.864 199.981 15 199.597 15.272C199.213 15.544 199.021 15.904 199.021 16.352C199.021 16.704 199.149 17 199.405 17.24C199.661 17.48 199.973 17.672 200.341 17.816C200.709 17.944 201.253 18.112 201.973 18.32C202.933 18.576 203.717 18.84 204.325 19.112C204.949 19.368 205.485 19.752 205.933 20.264C206.381 20.776 206.613 21.456 206.629 22.304C206.629 23.056 206.421 23.728 206.005 24.32C205.589 24.912 204.997 25.376 204.229 25.712C203.477 26.048 202.589 26.216 201.565 26.216ZM226.596 9.32V11.552H222.156V26H219.42V11.552H214.956V9.32H226.596ZM235.102 26.216C233.854 26.216 232.726 25.936 231.718 25.376C230.71 24.8 229.918 24 229.342 22.976C228.766 21.936 228.478 20.736 228.478 19.376C228.478 18.032 228.774 16.84 229.366 15.8C229.958 14.76 230.766 13.96 231.79 13.4C232.814 12.84 233.958 12.56 235.222 12.56C236.486 12.56 237.63 12.84 238.654 13.4C239.678 13.96 240.486 14.76 241.078 15.8C241.67 16.84 241.966 18.032 241.966 19.376C241.966 20.72 241.662 21.912 241.054 22.952C240.446 23.992 239.614 24.8 238.558 25.376C237.518 25.936 236.366 26.216 235.102 26.216ZM235.102 23.84C235.806 23.84 236.462 23.672 237.07 23.336C237.694 23 238.198 22.496 238.582 21.824C238.966 21.152 239.158 20.336 239.158 19.376C239.158 18.416 238.974 17.608 238.606 16.952C238.238 16.28 237.75 15.776 237.142 15.44C236.534 15.104 235.878 14.936 235.174 14.936C234.47 14.936 233.814 15.104 233.206 15.44C232.614 15.776 232.142 16.28 231.79 16.952C231.438 17.608 231.262 18.416 231.262 19.376C231.262 20.8 231.622 21.904 232.342 22.688C233.078 23.456 233.998 23.84 235.102 23.84ZM249.903 19.4L255.999 26H252.303L247.407 20.312V26H244.671V8.24H247.407V18.56L252.207 12.776H255.999L249.903 19.4ZM270.08 19.064C270.08 19.56 270.048 20.008 269.984 20.408H259.88C259.96 21.464 260.352 22.312 261.056 22.952C261.76 23.592 262.624 23.912 263.648 23.912C265.12 23.912 266.16 23.296 266.768 22.064H269.72C269.32 23.28 268.592 24.28 267.536 25.064C266.496 25.832 265.2 26.216 263.648 26.216C262.384 26.216 261.248 25.936 260.24 25.376C259.248 24.8 258.464 24 257.888 22.976C257.328 21.936 257.048 20.736 257.048 19.376C257.048 18.016 257.32 16.824 257.864 15.8C258.424 14.76 259.2 13.96 260.192 13.4C261.2 12.84 262.352 12.56 263.648 12.56C264.896 12.56 266.008 12.832 266.984 13.376C267.96 13.92 268.72 14.688 269.264 15.68C269.808 16.656 270.08 17.784 270.08 19.064ZM267.224 18.2C267.208 17.192 266.848 16.384 266.144 15.776C265.44 15.168 264.568 14.864 263.528 14.864C262.584 14.864 261.776 15.168 261.104 15.776C260.432 16.368 260.032 17.176 259.904 18.2H267.224ZM279.445 12.56C280.485 12.56 281.413 12.776 282.229 13.208C283.061 13.64 283.709 14.28 284.173 15.128C284.637 15.976 284.869 17 284.869 18.2V26H282.157V18.608C282.157 17.424 281.861 16.52 281.269 15.896C280.677 15.256 279.869 14.936 278.845 14.936C277.821 14.936 277.005 15.256 276.397 15.896C275.805 16.52 275.509 17.424 275.509 18.608V26H272.773V12.776H275.509V14.288C275.957 13.744 276.525 13.32 277.213 13.016C277.917 12.712 278.661 12.56 279.445 12.56Z" fill="#6FBF86"/>
</svg>
