<svg width="1440" height="531" viewBox="0 0 1440 531" fill="none" xmlns="http://www.w3.org/2000/svg">
<g filter="url(#filter0_b_201_332)">
<rect width="1440" height="531" rx="16" fill="white" fill-opacity="0.02"/>
<rect x="1" y="1" width="1438" height="529" rx="15" stroke="#6CB47B" stroke-width="2"/>
</g>
<path d="M521.384 103.112C520.563 103.112 519.827 102.979 519.176 102.712C518.525 102.445 518.003 102.051 517.608 101.528C517.224 101.005 517.021 100.376 517 99.64H519.912C519.955 100.056 520.099 100.376 520.344 100.6C520.589 100.813 520.909 100.92 521.304 100.92C521.709 100.92 522.029 100.829 522.264 100.648C522.499 100.456 522.616 100.195 522.616 99.864C522.616 99.5867 522.52 99.3573 522.328 99.176C522.147 98.9947 521.917 98.8453 521.64 98.728C521.373 98.6107 520.989 98.4773 520.488 98.328C519.763 98.104 519.171 97.88 518.712 97.656C518.253 97.432 517.859 97.1013 517.528 96.664C517.197 96.2267 517.032 95.656 517.032 94.952C517.032 93.9067 517.411 93.0907 518.168 92.504C518.925 91.9067 519.912 91.608 521.128 91.608C522.365 91.608 523.363 91.9067 524.12 92.504C524.877 93.0907 525.283 93.912 525.336 94.968H522.376C522.355 94.6053 522.221 94.3227 521.976 94.12C521.731 93.9067 521.416 93.8 521.032 93.8C520.701 93.8 520.435 93.8907 520.232 94.072C520.029 94.2427 519.928 94.4933 519.928 94.824C519.928 95.1867 520.099 95.4693 520.44 95.672C520.781 95.8747 521.315 96.0933 522.04 96.328C522.765 96.5733 523.352 96.808 523.8 97.032C524.259 97.256 524.653 97.5813 524.984 98.008C525.315 98.4347 525.48 98.984 525.48 99.656C525.48 100.296 525.315 100.877 524.984 101.4C524.664 101.923 524.195 102.339 523.576 102.648C522.957 102.957 522.227 103.112 521.384 103.112ZM535.244 91.768V93.96H532.268V103H529.532V93.96H526.556V91.768H535.244ZM543.609 101.016H539.417L538.745 103H535.881L539.945 91.768H543.113L547.177 103H544.281L543.609 101.016ZM542.905 98.904L541.513 94.792L540.137 98.904H542.905ZM555.87 95.32C555.667 94.9467 555.374 94.664 554.99 94.472C554.617 94.2693 554.174 94.168 553.662 94.168C552.777 94.168 552.067 94.4613 551.534 95.048C551.001 95.624 550.734 96.3973 550.734 97.368C550.734 98.4027 551.011 99.2133 551.566 99.8C552.131 100.376 552.905 100.664 553.886 100.664C554.558 100.664 555.123 100.493 555.582 100.152C556.051 99.8107 556.393 99.32 556.606 98.68H553.134V96.664H559.086V99.208C558.883 99.8907 558.537 100.525 558.046 101.112C557.566 101.699 556.953 102.173 556.206 102.536C555.459 102.899 554.617 103.08 553.678 103.08C552.569 103.08 551.577 102.84 550.702 102.36C549.838 101.869 549.161 101.192 548.67 100.328C548.19 99.464 547.95 98.4773 547.95 97.368C547.95 96.2587 548.19 95.272 548.67 94.408C549.161 93.5333 549.838 92.856 550.702 92.376C551.566 91.8853 552.553 91.64 553.662 91.64C555.006 91.64 556.137 91.9653 557.054 92.616C557.982 93.2667 558.595 94.168 558.894 95.32H555.87ZM563.337 93.96V96.232H567.001V98.344H563.337V100.808H567.481V103H560.601V91.768H567.481V93.96H563.337ZM572.088 93.864V91.32H576.52V103H573.672V93.864H572.088Z" fill="white"/>
<path d="M80.984 174.016H76.792L76.12 176H73.256L77.32 164.768H80.488L84.552 176H81.656L80.984 174.016ZM80.28 171.904L78.888 167.792L77.512 171.904H80.28ZM98.5089 164.768V176H95.7729V169.264L93.2609 176H91.0529L88.5249 169.248V176H85.7889V164.768H89.0209L92.1729 172.544L95.2929 164.768H98.5089ZM105.788 176.112C104.732 176.112 103.762 175.867 102.876 175.376C102.002 174.885 101.303 174.203 100.78 173.328C100.268 172.443 100.012 171.451 100.012 170.352C100.012 169.253 100.268 168.267 100.78 167.392C101.303 166.517 102.002 165.835 102.876 165.344C103.762 164.853 104.732 164.608 105.788 164.608C106.844 164.608 107.81 164.853 108.684 165.344C109.57 165.835 110.263 166.517 110.764 167.392C111.276 168.267 111.532 169.253 111.532 170.352C111.532 171.451 111.276 172.443 110.764 173.328C110.252 174.203 109.559 174.885 108.684 175.376C107.81 175.867 106.844 176.112 105.788 176.112ZM105.788 173.616C106.684 173.616 107.399 173.317 107.932 172.72C108.476 172.123 108.748 171.333 108.748 170.352C108.748 169.36 108.476 168.571 107.932 167.984C107.399 167.387 106.684 167.088 105.788 167.088C104.882 167.088 104.156 167.381 103.612 167.968C103.079 168.555 102.812 169.349 102.812 170.352C102.812 171.344 103.079 172.139 103.612 172.736C104.156 173.323 104.882 173.616 105.788 173.616ZM115.743 164.768V171.488C115.743 172.16 115.908 172.677 116.239 173.04C116.569 173.403 117.055 173.584 117.695 173.584C118.335 173.584 118.825 173.403 119.167 173.04C119.508 172.677 119.679 172.16 119.679 171.488V164.768H122.415V171.472C122.415 172.475 122.201 173.323 121.775 174.016C121.348 174.709 120.772 175.232 120.047 175.584C119.332 175.936 118.532 176.112 117.647 176.112C116.761 176.112 115.967 175.941 115.263 175.6C114.569 175.248 114.02 174.725 113.615 174.032C113.209 173.328 113.007 172.475 113.007 171.472V164.768H115.743ZM134.384 176H131.648L127.072 169.072V176H124.336V164.768H127.072L131.648 171.728V164.768H134.384V176ZM144.447 164.768V166.96H141.471V176H138.735V166.96H135.759V164.768H144.447ZM154.523 176.112C153.467 176.112 152.496 175.867 151.611 175.376C150.736 174.885 150.037 174.203 149.515 173.328C149.003 172.443 148.747 171.451 148.747 170.352C148.747 169.253 149.003 168.267 149.515 167.392C150.037 166.517 150.736 165.835 151.611 165.344C152.496 164.853 153.467 164.608 154.523 164.608C155.579 164.608 156.544 164.853 157.419 165.344C158.304 165.835 158.997 166.517 159.499 167.392C160.011 168.267 160.267 169.253 160.267 170.352C160.267 171.451 160.011 172.443 159.499 173.328C158.987 174.203 158.293 174.885 157.419 175.376C156.544 175.867 155.579 176.112 154.523 176.112ZM154.523 173.616C155.419 173.616 156.133 173.317 156.667 172.72C157.211 172.123 157.483 171.333 157.483 170.352C157.483 169.36 157.211 168.571 156.667 167.984C156.133 167.387 155.419 167.088 154.523 167.088C153.616 167.088 152.891 167.381 152.347 167.968C151.813 168.555 151.547 169.349 151.547 170.352C151.547 171.344 151.813 172.139 152.347 172.736C152.891 173.323 153.616 173.616 154.523 173.616ZM169.101 164.768V166.96H164.525V169.328H167.949V171.456H164.525V176H161.789V164.768H169.101ZM182.01 164.768V166.96H179.034V176H176.298V166.96H173.322V164.768H182.01ZM188.695 176.112C187.639 176.112 186.668 175.867 185.783 175.376C184.908 174.885 184.209 174.203 183.687 173.328C183.175 172.443 182.919 171.451 182.919 170.352C182.919 169.253 183.175 168.267 183.687 167.392C184.209 166.517 184.908 165.835 185.783 165.344C186.668 164.853 187.639 164.608 188.695 164.608C189.751 164.608 190.716 164.853 191.591 165.344C192.476 165.835 193.169 166.517 193.671 167.392C194.183 168.267 194.439 169.253 194.439 170.352C194.439 171.451 194.183 172.443 193.671 173.328C193.159 174.203 192.465 174.885 191.591 175.376C190.716 175.867 189.751 176.112 188.695 176.112ZM188.695 173.616C189.591 173.616 190.305 173.317 190.839 172.72C191.383 172.123 191.655 171.333 191.655 170.352C191.655 169.36 191.383 168.571 190.839 167.984C190.305 167.387 189.591 167.088 188.695 167.088C187.788 167.088 187.063 167.381 186.519 167.968C185.985 168.555 185.719 169.349 185.719 170.352C185.719 171.344 185.985 172.139 186.519 172.736C187.063 173.323 187.788 173.616 188.695 173.616ZM202.473 176L198.697 171.04V176H195.961V164.768H198.697V169.696L202.441 164.768H205.657L201.305 170.272L205.817 176H202.473ZM209.853 166.96V169.232H213.517V171.344H209.853V173.808H213.997V176H207.117V164.768H213.997V166.96H209.853ZM225.821 176H223.085L218.509 169.072V176H215.773V164.768H218.509L223.085 171.728V164.768H225.821V176Z" fill="white"/>
<path d="M523.176 166.368L519.16 176H516.36L520.424 166.672H515.448V164.336H523.176V166.368ZM524.187 173.808C524.549 173.52 524.715 173.387 524.683 173.408C525.728 172.544 526.549 171.835 527.147 171.28C527.755 170.725 528.267 170.144 528.683 169.536C529.099 168.928 529.307 168.336 529.307 167.76C529.307 167.323 529.205 166.981 529.003 166.736C528.8 166.491 528.496 166.368 528.091 166.368C527.685 166.368 527.365 166.523 527.131 166.832C526.907 167.131 526.795 167.557 526.795 168.112H524.155C524.176 167.205 524.368 166.448 524.731 165.84C525.104 165.232 525.589 164.784 526.187 164.496C526.795 164.208 527.467 164.064 528.203 164.064C529.472 164.064 530.427 164.389 531.067 165.04C531.717 165.691 532.043 166.539 532.043 167.584C532.043 168.725 531.653 169.787 530.875 170.768C530.096 171.739 529.104 172.688 527.899 173.616H532.219V175.84H524.187V173.808ZM533.423 170C533.423 168.165 533.775 166.72 534.479 165.664C535.194 164.608 536.34 164.08 537.919 164.08C539.498 164.08 540.639 164.608 541.343 165.664C542.058 166.72 542.415 168.165 542.415 170C542.415 171.856 542.058 173.312 541.343 174.368C540.639 175.424 539.498 175.952 537.919 175.952C536.34 175.952 535.194 175.424 534.479 174.368C533.775 173.312 533.423 171.856 533.423 170ZM539.727 170C539.727 168.923 539.61 168.096 539.375 167.52C539.14 166.933 538.655 166.64 537.919 166.64C537.183 166.64 536.698 166.933 536.463 167.52C536.228 168.096 536.111 168.923 536.111 170C536.111 170.725 536.154 171.328 536.239 171.808C536.324 172.277 536.495 172.661 536.751 172.96C537.018 173.248 537.407 173.392 537.919 173.392C538.431 173.392 538.815 173.248 539.071 172.96C539.338 172.661 539.514 172.277 539.599 171.808C539.684 171.328 539.727 170.725 539.727 170ZM545.413 176.128C544.933 176.128 544.538 175.989 544.229 175.712C543.93 175.424 543.781 175.072 543.781 174.656C543.781 174.229 543.93 173.872 544.229 173.584C544.538 173.296 544.933 173.152 545.413 173.152C545.882 173.152 546.266 173.296 546.565 173.584C546.874 173.872 547.029 174.229 547.029 174.656C547.029 175.072 546.874 175.424 546.565 175.712C546.266 175.989 545.882 176.128 545.413 176.128ZM548.376 170C548.376 168.165 548.728 166.72 549.432 165.664C550.147 164.608 551.294 164.08 552.872 164.08C554.451 164.08 555.592 164.608 556.296 165.664C557.011 166.72 557.368 168.165 557.368 170C557.368 171.856 557.011 173.312 556.296 174.368C555.592 175.424 554.451 175.952 552.872 175.952C551.294 175.952 550.147 175.424 549.432 174.368C548.728 173.312 548.376 171.856 548.376 170ZM554.68 170C554.68 168.923 554.563 168.096 554.328 167.52C554.094 166.933 553.608 166.64 552.872 166.64C552.136 166.64 551.651 166.933 551.416 167.52C551.182 168.096 551.064 168.923 551.064 170C551.064 170.725 551.107 171.328 551.192 171.808C551.278 172.277 551.448 172.661 551.704 172.96C551.971 173.248 552.36 173.392 552.872 173.392C553.384 173.392 553.768 173.248 554.024 172.96C554.291 172.661 554.467 172.277 554.552 171.808C554.638 171.328 554.68 170.725 554.68 170ZM558.814 170C558.814 168.165 559.166 166.72 559.87 165.664C560.584 164.608 561.731 164.08 563.31 164.08C564.888 164.08 566.03 164.608 566.734 165.664C567.448 166.72 567.806 168.165 567.806 170C567.806 171.856 567.448 173.312 566.734 174.368C566.03 175.424 564.888 175.952 563.31 175.952C561.731 175.952 560.584 175.424 559.87 174.368C559.166 173.312 558.814 171.856 558.814 170ZM565.118 170C565.118 168.923 565 168.096 564.766 167.52C564.531 166.933 564.046 166.64 563.31 166.64C562.574 166.64 562.088 166.933 561.854 167.52C561.619 168.096 561.502 168.923 561.502 170C561.502 170.725 561.544 171.328 561.63 171.808C561.715 172.277 561.886 172.661 562.142 172.96C562.408 173.248 562.798 173.392 563.31 173.392C563.822 173.392 564.206 173.248 564.462 172.96C564.728 172.661 564.904 172.277 564.99 171.808C565.075 171.328 565.118 170.725 565.118 170ZM569.251 170C569.251 168.165 569.603 166.72 570.307 165.664C571.022 164.608 572.169 164.08 573.747 164.08C575.326 164.08 576.467 164.608 577.171 165.664C577.886 166.72 578.243 168.165 578.243 170C578.243 171.856 577.886 173.312 577.171 174.368C576.467 175.424 575.326 175.952 573.747 175.952C572.169 175.952 571.022 175.424 570.307 174.368C569.603 173.312 569.251 171.856 569.251 170ZM575.555 170C575.555 168.923 575.438 168.096 575.203 167.52C574.969 166.933 574.483 166.64 573.747 166.64C573.011 166.64 572.526 166.933 572.291 167.52C572.057 168.096 571.939 168.923 571.939 170C571.939 170.725 571.982 171.328 572.067 171.808C572.153 172.277 572.323 172.661 572.579 172.96C572.846 173.248 573.235 173.392 573.747 173.392C574.259 173.392 574.643 173.248 574.899 172.96C575.166 172.661 575.342 172.277 575.427 171.808C575.513 171.328 575.555 170.725 575.555 170Z" fill="url(#paint0_linear_201_332)"/>
<path d="M538.737 244.864V242.32H543.169V254H540.321V244.864H538.737ZM546.96 247.728C545.958 247.195 545.456 246.357 545.456 245.216C545.456 244.64 545.606 244.117 545.904 243.648C546.203 243.168 546.656 242.789 547.264 242.512C547.872 242.224 548.619 242.08 549.504 242.08C550.39 242.08 551.131 242.224 551.728 242.512C552.336 242.789 552.79 243.168 553.088 243.648C553.387 244.117 553.536 244.64 553.536 245.216C553.536 245.792 553.398 246.293 553.12 246.72C552.854 247.147 552.491 247.483 552.032 247.728C552.608 248.005 553.051 248.389 553.36 248.88C553.67 249.36 553.824 249.925 553.824 250.576C553.824 251.333 553.632 251.989 553.248 252.544C552.864 253.088 552.342 253.504 551.68 253.792C551.03 254.08 550.304 254.224 549.504 254.224C548.704 254.224 547.974 254.08 547.312 253.792C546.662 253.504 546.144 253.088 545.76 252.544C545.376 251.989 545.184 251.333 545.184 250.576C545.184 249.915 545.339 249.344 545.648 248.864C545.958 248.373 546.395 247.995 546.96 247.728ZM550.88 245.632C550.88 245.195 550.752 244.859 550.496 244.624C550.251 244.379 549.92 244.256 549.504 244.256C549.088 244.256 548.752 244.379 548.496 244.624C548.251 244.869 548.128 245.211 548.128 245.648C548.128 246.064 548.256 246.395 548.512 246.64C548.768 246.875 549.099 246.992 549.504 246.992C549.91 246.992 550.24 246.869 550.496 246.624C550.752 246.379 550.88 246.048 550.88 245.632ZM549.504 248.912C549.003 248.912 548.598 249.051 548.288 249.328C547.979 249.595 547.824 249.968 547.824 250.448C547.824 250.896 547.974 251.264 548.272 251.552C548.582 251.84 548.992 251.984 549.504 251.984C550.016 251.984 550.416 251.84 550.704 251.552C551.003 251.264 551.152 250.896 551.152 250.448C551.152 249.979 550.998 249.605 550.688 249.328C550.39 249.051 549.995 248.912 549.504 248.912Z" fill="url(#paint1_linear_201_332)"/>
<path d="M512.909 322.864V320.32H517.341V332H514.493V322.864H512.909ZM529.867 330.016H525.675L525.003 332H522.139L526.203 320.768H529.371L533.435 332H530.539L529.867 330.016ZM529.163 327.904L527.771 323.792L526.395 327.904H529.163ZM543.488 323.072V332H540.752V330.784C540.474 331.179 540.096 331.499 539.616 331.744C539.146 331.979 538.624 332.096 538.048 332.096C537.365 332.096 536.762 331.947 536.24 331.648C535.717 331.339 535.312 330.896 535.024 330.32C534.736 329.744 534.592 329.067 534.592 328.288V323.072H537.312V327.92C537.312 328.517 537.466 328.981 537.776 329.312C538.085 329.643 538.501 329.808 539.024 329.808C539.557 329.808 539.978 329.643 540.288 329.312C540.597 328.981 540.752 328.517 540.752 327.92V323.072H543.488ZM548.845 322.944C549.474 322.944 550.024 323.072 550.493 323.328C550.973 323.584 551.341 323.92 551.597 324.336V323.072H554.333V331.984C554.333 332.805 554.168 333.547 553.837 334.208C553.517 334.88 553.021 335.413 552.349 335.808C551.688 336.203 550.861 336.4 549.869 336.4C548.546 336.4 547.474 336.085 546.653 335.456C545.832 334.837 545.362 333.995 545.245 332.928H547.949C548.034 333.269 548.237 333.536 548.557 333.728C548.877 333.931 549.272 334.032 549.741 334.032C550.306 334.032 550.754 333.867 551.085 333.536C551.426 333.216 551.597 332.699 551.597 331.984V330.72C551.33 331.136 550.962 331.477 550.493 331.744C550.024 332 549.474 332.128 548.845 332.128C548.109 332.128 547.442 331.941 546.845 331.568C546.248 331.184 545.773 330.645 545.421 329.952C545.08 329.248 544.909 328.437 544.909 327.52C544.909 326.603 545.08 325.797 545.421 325.104C545.773 324.411 546.248 323.877 546.845 323.504C547.442 323.131 548.109 322.944 548.845 322.944ZM551.597 327.536C551.597 326.853 551.405 326.315 551.021 325.92C550.648 325.525 550.189 325.328 549.645 325.328C549.101 325.328 548.637 325.525 548.253 325.92C547.88 326.304 547.693 326.837 547.693 327.52C547.693 328.203 547.88 328.747 548.253 329.152C548.637 329.547 549.101 329.744 549.645 329.744C550.189 329.744 550.648 329.547 551.021 329.152C551.405 328.757 551.597 328.219 551.597 327.536ZM565.128 323.072V332H562.392V330.784C562.115 331.179 561.736 331.499 561.256 331.744C560.787 331.979 560.264 332.096 559.688 332.096C559.006 332.096 558.403 331.947 557.88 331.648C557.358 331.339 556.952 330.896 556.664 330.32C556.376 329.744 556.232 329.067 556.232 328.288V323.072H558.952V327.92C558.952 328.517 559.107 328.981 559.416 329.312C559.726 329.643 560.142 329.808 560.664 329.808C561.198 329.808 561.619 329.643 561.928 329.312C562.238 328.981 562.392 328.517 562.392 327.92V323.072H565.128ZM570.726 332.128C569.947 332.128 569.254 331.995 568.646 331.728C568.038 331.461 567.558 331.099 567.206 330.64C566.854 330.171 566.656 329.648 566.614 329.072H569.318C569.35 329.381 569.494 329.632 569.75 329.824C570.006 330.016 570.32 330.112 570.694 330.112C571.035 330.112 571.296 330.048 571.478 329.92C571.67 329.781 571.766 329.605 571.766 329.392C571.766 329.136 571.632 328.949 571.366 328.832C571.099 328.704 570.667 328.565 570.07 328.416C569.43 328.267 568.896 328.112 568.47 327.952C568.043 327.781 567.675 327.52 567.366 327.168C567.056 326.805 566.902 326.32 566.902 325.712C566.902 325.2 567.04 324.736 567.318 324.32C567.606 323.893 568.022 323.557 568.566 323.312C569.12 323.067 569.776 322.944 570.534 322.944C571.654 322.944 572.534 323.221 573.174 323.776C573.824 324.331 574.198 325.067 574.294 325.984H571.766C571.723 325.675 571.584 325.429 571.35 325.248C571.126 325.067 570.827 324.976 570.454 324.976C570.134 324.976 569.888 325.04 569.718 325.168C569.547 325.285 569.462 325.451 569.462 325.664C569.462 325.92 569.595 326.112 569.862 326.24C570.139 326.368 570.566 326.496 571.142 326.624C571.803 326.795 572.342 326.965 572.758 327.136C573.174 327.296 573.536 327.563 573.846 327.936C574.166 328.299 574.331 328.789 574.342 329.408C574.342 329.931 574.192 330.4 573.894 330.816C573.606 331.221 573.184 331.541 572.63 331.776C572.086 332.011 571.451 332.128 570.726 332.128ZM580.991 329.68V332H579.599C578.607 332 577.834 331.76 577.279 331.28C576.725 330.789 576.447 329.995 576.447 328.896V325.344H575.359V323.072H576.447V320.896H579.183V323.072H580.975V325.344H579.183V328.928C579.183 329.195 579.247 329.387 579.375 329.504C579.503 329.621 579.717 329.68 580.015 329.68H580.991Z" fill="url(#paint2_linear_201_332)"/>
<path d="M506.968 407.808C507.33 407.52 507.496 407.387 507.464 407.408C508.509 406.544 509.33 405.835 509.928 405.28C510.536 404.725 511.048 404.144 511.464 403.536C511.88 402.928 512.088 402.336 512.088 401.76C512.088 401.323 511.986 400.981 511.784 400.736C511.581 400.491 511.277 400.368 510.872 400.368C510.466 400.368 510.146 400.523 509.912 400.832C509.688 401.131 509.576 401.557 509.576 402.112H506.936C506.957 401.205 507.149 400.448 507.512 399.84C507.885 399.232 508.37 398.784 508.968 398.496C509.576 398.208 510.248 398.064 510.984 398.064C512.253 398.064 513.208 398.389 513.848 399.04C514.498 399.691 514.824 400.539 514.824 401.584C514.824 402.725 514.434 403.787 513.656 404.768C512.877 405.739 511.885 406.688 510.68 407.616H515V409.84H506.968V407.808ZM516.108 407.808C516.471 407.52 516.636 407.387 516.604 407.408C517.65 406.544 518.471 405.835 519.068 405.28C519.676 404.725 520.188 404.144 520.604 403.536C521.02 402.928 521.228 402.336 521.228 401.76C521.228 401.323 521.127 400.981 520.924 400.736C520.722 400.491 520.418 400.368 520.012 400.368C519.607 400.368 519.287 400.523 519.052 400.832C518.828 401.131 518.716 401.557 518.716 402.112H516.076C516.098 401.205 516.29 400.448 516.652 399.84C517.026 399.232 517.511 398.784 518.108 398.496C518.716 398.208 519.388 398.064 520.124 398.064C521.394 398.064 522.348 398.389 522.988 399.04C523.639 399.691 523.964 400.539 523.964 401.584C523.964 402.725 523.575 403.787 522.796 404.768C522.018 405.739 521.026 406.688 519.82 407.616H524.14V409.84H516.108V407.808ZM536 408.016H531.808L531.136 410H528.272L532.336 398.768H535.504L539.568 410H536.672L536 408.016ZM535.296 405.904L533.904 401.792L532.528 405.904H535.296ZM549.621 401.072V410H546.885V408.784C546.607 409.179 546.229 409.499 545.749 409.744C545.279 409.979 544.757 410.096 544.181 410.096C543.498 410.096 542.895 409.947 542.373 409.648C541.85 409.339 541.445 408.896 541.157 408.32C540.869 407.744 540.725 407.067 540.725 406.288V401.072H543.445V405.92C543.445 406.517 543.599 406.981 543.909 407.312C544.218 407.643 544.634 407.808 545.157 407.808C545.69 407.808 546.111 407.643 546.421 407.312C546.73 406.981 546.885 406.517 546.885 405.92V401.072H549.621ZM554.978 400.944C555.607 400.944 556.156 401.072 556.626 401.328C557.106 401.584 557.474 401.92 557.73 402.336V401.072H560.466V409.984C560.466 410.805 560.3 411.547 559.97 412.208C559.65 412.88 559.154 413.413 558.482 413.808C557.82 414.203 556.994 414.4 556.002 414.4C554.679 414.4 553.607 414.085 552.786 413.456C551.964 412.837 551.495 411.995 551.378 410.928H554.082C554.167 411.269 554.37 411.536 554.69 411.728C555.01 411.931 555.404 412.032 555.874 412.032C556.439 412.032 556.887 411.867 557.218 411.536C557.559 411.216 557.73 410.699 557.73 409.984V408.72C557.463 409.136 557.095 409.477 556.626 409.744C556.156 410 555.607 410.128 554.978 410.128C554.242 410.128 553.575 409.941 552.978 409.568C552.38 409.184 551.906 408.645 551.554 407.952C551.212 407.248 551.042 406.437 551.042 405.52C551.042 404.603 551.212 403.797 551.554 403.104C551.906 402.411 552.38 401.877 552.978 401.504C553.575 401.131 554.242 400.944 554.978 400.944ZM557.73 405.536C557.73 404.853 557.538 404.315 557.154 403.92C556.78 403.525 556.322 403.328 555.778 403.328C555.234 403.328 554.77 403.525 554.386 403.92C554.012 404.304 553.826 404.837 553.826 405.52C553.826 406.203 554.012 406.747 554.386 407.152C554.77 407.547 555.234 407.744 555.778 407.744C556.322 407.744 556.78 407.547 557.154 407.152C557.538 406.757 557.73 406.219 557.73 405.536ZM571.261 401.072V410H568.525V408.784C568.248 409.179 567.869 409.499 567.389 409.744C566.92 409.979 566.397 410.096 565.821 410.096C565.138 410.096 564.536 409.947 564.013 409.648C563.49 409.339 563.085 408.896 562.797 408.32C562.509 407.744 562.365 407.067 562.365 406.288V401.072H565.085V405.92C565.085 406.517 565.24 406.981 565.549 407.312C565.858 407.643 566.274 407.808 566.797 407.808C567.33 407.808 567.752 407.643 568.061 407.312C568.37 406.981 568.525 406.517 568.525 405.92V401.072H571.261ZM576.858 410.128C576.08 410.128 575.386 409.995 574.778 409.728C574.17 409.461 573.69 409.099 573.338 408.64C572.986 408.171 572.789 407.648 572.746 407.072H575.45C575.482 407.381 575.626 407.632 575.882 407.824C576.138 408.016 576.453 408.112 576.826 408.112C577.168 408.112 577.429 408.048 577.61 407.92C577.802 407.781 577.898 407.605 577.898 407.392C577.898 407.136 577.765 406.949 577.498 406.832C577.232 406.704 576.8 406.565 576.202 406.416C575.562 406.267 575.029 406.112 574.602 405.952C574.176 405.781 573.808 405.52 573.498 405.168C573.189 404.805 573.034 404.32 573.034 403.712C573.034 403.2 573.173 402.736 573.45 402.32C573.738 401.893 574.154 401.557 574.698 401.312C575.253 401.067 575.909 400.944 576.666 400.944C577.786 400.944 578.666 401.221 579.306 401.776C579.957 402.331 580.33 403.067 580.426 403.984H577.898C577.856 403.675 577.717 403.429 577.482 403.248C577.258 403.067 576.96 402.976 576.586 402.976C576.266 402.976 576.021 403.04 575.85 403.168C575.68 403.285 575.594 403.451 575.594 403.664C575.594 403.92 575.728 404.112 575.994 404.24C576.272 404.368 576.698 404.496 577.274 404.624C577.936 404.795 578.474 404.965 578.89 405.136C579.306 405.296 579.669 405.563 579.978 405.936C580.298 406.299 580.464 406.789 580.474 407.408C580.474 407.931 580.325 408.4 580.026 408.816C579.738 409.221 579.317 409.541 578.762 409.776C578.218 410.011 577.584 410.128 576.858 410.128ZM587.124 407.68V410H585.732C584.74 410 583.967 409.76 583.412 409.28C582.858 408.789 582.58 407.995 582.58 406.896V403.344H581.492V401.072H582.58V398.896H585.316V401.072H587.108V403.344H585.316V406.928C585.316 407.195 585.38 407.387 585.508 407.504C585.636 407.621 585.85 407.68 586.148 407.68H587.124Z" fill="url(#paint3_linear_201_332)"/>
<path d="M542.972 479.616C543.015 478.475 543.388 477.595 544.092 476.976C544.796 476.357 545.751 476.048 546.956 476.048C547.756 476.048 548.439 476.187 549.004 476.464C549.58 476.741 550.012 477.12 550.3 477.6C550.599 478.08 550.748 478.619 550.748 479.216C550.748 479.92 550.572 480.496 550.22 480.944C549.868 481.381 549.458 481.68 548.988 481.84V481.904C549.596 482.107 550.076 482.443 550.428 482.912C550.78 483.381 550.956 483.984 550.956 484.72C550.956 485.381 550.802 485.968 550.492 486.48C550.194 486.981 549.751 487.376 549.164 487.664C548.588 487.952 547.9 488.096 547.1 488.096C545.82 488.096 544.796 487.781 544.028 487.152C543.271 486.523 542.871 485.573 542.828 484.304H545.484C545.495 484.773 545.628 485.147 545.884 485.424C546.14 485.691 546.514 485.824 547.004 485.824C547.42 485.824 547.74 485.707 547.964 485.472C548.199 485.227 548.316 484.907 548.316 484.512C548.316 484 548.151 483.632 547.82 483.408C547.5 483.173 546.983 483.056 546.268 483.056H545.756V480.832H546.268C546.812 480.832 547.25 480.741 547.58 480.56C547.922 480.368 548.092 480.032 548.092 479.552C548.092 479.168 547.986 478.869 547.772 478.656C547.559 478.443 547.266 478.336 546.892 478.336C546.487 478.336 546.183 478.459 545.98 478.704C545.788 478.949 545.676 479.253 545.644 479.616H542.972Z" fill="url(#paint4_linear_201_332)"/>
<path d="M877.121 167.616C877.163 166.475 877.537 165.595 878.241 164.976C878.945 164.357 879.899 164.048 881.105 164.048C881.905 164.048 882.587 164.187 883.153 164.464C883.729 164.741 884.161 165.12 884.449 165.6C884.747 166.08 884.897 166.619 884.897 167.216C884.897 167.92 884.721 168.496 884.369 168.944C884.017 169.381 883.606 169.68 883.137 169.84V169.904C883.745 170.107 884.225 170.443 884.577 170.912C884.929 171.381 885.105 171.984 885.105 172.72C885.105 173.381 884.95 173.968 884.641 174.48C884.342 174.981 883.899 175.376 883.313 175.664C882.737 175.952 882.049 176.096 881.249 176.096C879.969 176.096 878.945 175.781 878.177 175.152C877.419 174.523 877.019 173.573 876.977 172.304H879.633C879.643 172.773 879.777 173.147 880.033 173.424C880.289 173.691 880.662 173.824 881.153 173.824C881.569 173.824 881.889 173.707 882.113 173.472C882.347 173.227 882.465 172.907 882.465 172.512C882.465 172 882.299 171.632 881.969 171.408C881.649 171.173 881.131 171.056 880.417 171.056H879.905V168.832H880.417C880.961 168.832 881.398 168.741 881.729 168.56C882.07 168.368 882.241 168.032 882.241 167.552C882.241 167.168 882.134 166.869 881.921 166.656C881.707 166.443 881.414 166.336 881.041 166.336C880.635 166.336 880.331 166.459 880.129 166.704C879.937 166.949 879.825 167.253 879.793 167.616H877.121ZM886.712 170C886.712 168.165 887.064 166.72 887.768 165.664C888.483 164.608 889.63 164.08 891.208 164.08C892.787 164.08 893.928 164.608 894.632 165.664C895.347 166.72 895.704 168.165 895.704 170C895.704 171.856 895.347 173.312 894.632 174.368C893.928 175.424 892.787 175.952 891.208 175.952C889.63 175.952 888.483 175.424 887.768 174.368C887.064 173.312 886.712 171.856 886.712 170ZM893.016 170C893.016 168.923 892.899 168.096 892.664 167.52C892.43 166.933 891.944 166.64 891.208 166.64C890.472 166.64 889.987 166.933 889.752 167.52C889.518 168.096 889.4 168.923 889.4 170C889.4 170.725 889.443 171.328 889.528 171.808C889.614 172.277 889.784 172.661 890.04 172.96C890.307 173.248 890.696 173.392 891.208 173.392C891.72 173.392 892.104 173.248 892.36 172.96C892.627 172.661 892.803 172.277 892.888 171.808C892.974 171.328 893.016 170.725 893.016 170ZM897.15 170C897.15 168.165 897.502 166.72 898.206 165.664C898.92 164.608 900.067 164.08 901.646 164.08C903.224 164.08 904.366 164.608 905.07 165.664C905.784 166.72 906.142 168.165 906.142 170C906.142 171.856 905.784 173.312 905.07 174.368C904.366 175.424 903.224 175.952 901.646 175.952C900.067 175.952 898.92 175.424 898.206 174.368C897.502 173.312 897.15 171.856 897.15 170ZM903.454 170C903.454 168.923 903.336 168.096 903.102 167.52C902.867 166.933 902.382 166.64 901.646 166.64C900.91 166.64 900.424 166.933 900.19 167.52C899.955 168.096 899.838 168.923 899.838 170C899.838 170.725 899.88 171.328 899.966 171.808C900.051 172.277 900.222 172.661 900.478 172.96C900.744 173.248 901.134 173.392 901.646 173.392C902.158 173.392 902.542 173.248 902.798 172.96C903.064 172.661 903.24 172.277 903.326 171.808C903.411 171.328 903.454 170.725 903.454 170ZM909.139 176.128C908.659 176.128 908.265 175.989 907.955 175.712C907.657 175.424 907.507 175.072 907.507 174.656C907.507 174.229 907.657 173.872 907.955 173.584C908.265 173.296 908.659 173.152 909.139 173.152C909.609 173.152 909.993 173.296 910.291 173.584C910.601 173.872 910.755 174.229 910.755 174.656C910.755 175.072 910.601 175.424 910.291 175.712C909.993 175.989 909.609 176.128 909.139 176.128ZM912.103 170C912.103 168.165 912.455 166.72 913.159 165.664C913.873 164.608 915.02 164.08 916.599 164.08C918.177 164.08 919.319 164.608 920.023 165.664C920.737 166.72 921.095 168.165 921.095 170C921.095 171.856 920.737 173.312 920.023 174.368C919.319 175.424 918.177 175.952 916.599 175.952C915.02 175.952 913.873 175.424 913.159 174.368C912.455 173.312 912.103 171.856 912.103 170ZM918.407 170C918.407 168.923 918.289 168.096 918.055 167.52C917.82 166.933 917.335 166.64 916.599 166.64C915.863 166.64 915.377 166.933 915.143 167.52C914.908 168.096 914.791 168.923 914.791 170C914.791 170.725 914.833 171.328 914.919 171.808C915.004 172.277 915.175 172.661 915.431 172.96C915.697 173.248 916.087 173.392 916.599 173.392C917.111 173.392 917.495 173.248 917.751 172.96C918.017 172.661 918.193 172.277 918.279 171.808C918.364 171.328 918.407 170.725 918.407 170ZM922.54 170C922.54 168.165 922.892 166.72 923.596 165.664C924.311 164.608 925.458 164.08 927.036 164.08C928.615 164.08 929.756 164.608 930.46 165.664C931.175 166.72 931.532 168.165 931.532 170C931.532 171.856 931.175 173.312 930.46 174.368C929.756 175.424 928.615 175.952 927.036 175.952C925.458 175.952 924.311 175.424 923.596 174.368C922.892 173.312 922.54 171.856 922.54 170ZM928.844 170C928.844 168.923 928.727 168.096 928.492 167.52C928.258 166.933 927.772 166.64 927.036 166.64C926.3 166.64 925.815 166.933 925.58 167.52C925.346 168.096 925.228 168.923 925.228 170C925.228 170.725 925.271 171.328 925.356 171.808C925.442 172.277 925.612 172.661 925.868 172.96C926.135 173.248 926.524 173.392 927.036 173.392C927.548 173.392 927.932 173.248 928.188 172.96C928.455 172.661 928.631 172.277 928.716 171.808C928.802 171.328 928.844 170.725 928.844 170ZM932.978 170C932.978 168.165 933.33 166.72 934.034 165.664C934.748 164.608 935.895 164.08 937.474 164.08C939.052 164.08 940.194 164.608 940.898 165.664C941.612 166.72 941.97 168.165 941.97 170C941.97 171.856 941.612 173.312 940.898 174.368C940.194 175.424 939.052 175.952 937.474 175.952C935.895 175.952 934.748 175.424 934.034 174.368C933.33 173.312 932.978 171.856 932.978 170ZM939.282 170C939.282 168.923 939.164 168.096 938.93 167.52C938.695 166.933 938.21 166.64 937.474 166.64C936.738 166.64 936.252 166.933 936.018 167.52C935.783 168.096 935.666 168.923 935.666 170C935.666 170.725 935.708 171.328 935.794 171.808C935.879 172.277 936.05 172.661 936.306 172.96C936.572 173.248 936.962 173.392 937.474 173.392C937.986 173.392 938.37 173.248 938.626 172.96C938.892 172.661 939.068 172.277 939.154 171.808C939.239 171.328 939.282 170.725 939.282 170Z" fill="url(#paint5_linear_201_332)"/>
<path d="M905.434 244.368L901.418 254H898.618L902.682 244.672H897.706V242.336H905.434V244.368ZM908.092 254.128C907.612 254.128 907.218 253.989 906.908 253.712C906.61 253.424 906.46 253.072 906.46 252.656C906.46 252.229 906.61 251.872 906.908 251.584C907.218 251.296 907.612 251.152 908.092 251.152C908.562 251.152 908.946 251.296 909.244 251.584C909.554 251.872 909.708 252.229 909.708 252.656C909.708 253.072 909.554 253.424 909.244 253.712C908.946 253.989 908.562 254.128 908.092 254.128ZM919.28 244.704H914.288V246.912C914.501 246.677 914.8 246.485 915.184 246.336C915.568 246.187 915.984 246.112 916.432 246.112C917.232 246.112 917.893 246.293 918.416 246.656C918.949 247.019 919.339 247.488 919.584 248.064C919.829 248.64 919.952 249.264 919.952 249.936C919.952 251.184 919.6 252.176 918.896 252.912C918.192 253.637 917.2 254 915.92 254C915.067 254 914.325 253.856 913.696 253.568C913.067 253.269 912.581 252.859 912.24 252.336C911.899 251.813 911.712 251.211 911.68 250.528H914.352C914.416 250.859 914.571 251.136 914.816 251.36C915.061 251.573 915.397 251.68 915.824 251.68C916.325 251.68 916.699 251.52 916.944 251.2C917.189 250.88 917.312 250.453 917.312 249.92C917.312 249.397 917.184 248.997 916.928 248.72C916.672 248.443 916.299 248.304 915.808 248.304C915.445 248.304 915.147 248.395 914.912 248.576C914.677 248.747 914.523 248.976 914.448 249.264H911.808V242.304H919.28V244.704Z" fill="url(#paint6_linear_201_332)"/>
<path d="M868.968 329.808C869.33 329.52 869.496 329.387 869.464 329.408C870.509 328.544 871.33 327.835 871.928 327.28C872.536 326.725 873.048 326.144 873.464 325.536C873.88 324.928 874.088 324.336 874.088 323.76C874.088 323.323 873.986 322.981 873.784 322.736C873.581 322.491 873.277 322.368 872.872 322.368C872.466 322.368 872.146 322.523 871.912 322.832C871.688 323.131 871.576 323.557 871.576 324.112H868.936C868.957 323.205 869.149 322.448 869.512 321.84C869.885 321.232 870.37 320.784 870.968 320.496C871.576 320.208 872.248 320.064 872.984 320.064C874.253 320.064 875.208 320.389 875.848 321.04C876.498 321.691 876.824 322.539 876.824 323.584C876.824 324.725 876.434 325.787 875.656 326.768C874.877 327.739 873.885 328.688 872.68 329.616H877V331.84H868.968V329.808ZM878.108 329.808C878.471 329.52 878.636 329.387 878.604 329.408C879.65 328.544 880.471 327.835 881.068 327.28C881.676 326.725 882.188 326.144 882.604 325.536C883.02 324.928 883.228 324.336 883.228 323.76C883.228 323.323 883.127 322.981 882.924 322.736C882.722 322.491 882.418 322.368 882.012 322.368C881.607 322.368 881.287 322.523 881.052 322.832C880.828 323.131 880.716 323.557 880.716 324.112H878.076C878.098 323.205 878.29 322.448 878.652 321.84C879.026 321.232 879.511 320.784 880.108 320.496C880.716 320.208 881.388 320.064 882.124 320.064C883.394 320.064 884.348 320.389 884.988 321.04C885.639 321.691 885.964 322.539 885.964 323.584C885.964 324.725 885.575 325.787 884.796 326.768C884.018 327.739 883.026 328.688 881.82 329.616H886.14V331.84H878.108V329.808ZM898 330.016H893.808L893.136 332H890.272L894.336 320.768H897.504L901.568 332H898.672L898 330.016ZM897.296 327.904L895.904 323.792L894.528 327.904H897.296ZM911.621 323.072V332H908.885V330.784C908.607 331.179 908.229 331.499 907.749 331.744C907.279 331.979 906.757 332.096 906.181 332.096C905.498 332.096 904.895 331.947 904.373 331.648C903.85 331.339 903.445 330.896 903.157 330.32C902.869 329.744 902.725 329.067 902.725 328.288V323.072H905.445V327.92C905.445 328.517 905.599 328.981 905.909 329.312C906.218 329.643 906.634 329.808 907.157 329.808C907.69 329.808 908.111 329.643 908.421 329.312C908.73 328.981 908.885 328.517 908.885 327.92V323.072H911.621ZM916.978 322.944C917.607 322.944 918.156 323.072 918.626 323.328C919.106 323.584 919.474 323.92 919.73 324.336V323.072H922.466V331.984C922.466 332.805 922.3 333.547 921.97 334.208C921.65 334.88 921.154 335.413 920.482 335.808C919.82 336.203 918.994 336.4 918.002 336.4C916.679 336.4 915.607 336.085 914.786 335.456C913.964 334.837 913.495 333.995 913.378 332.928H916.082C916.167 333.269 916.37 333.536 916.69 333.728C917.01 333.931 917.404 334.032 917.874 334.032C918.439 334.032 918.887 333.867 919.218 333.536C919.559 333.216 919.73 332.699 919.73 331.984V330.72C919.463 331.136 919.095 331.477 918.626 331.744C918.156 332 917.607 332.128 916.978 332.128C916.242 332.128 915.575 331.941 914.978 331.568C914.38 331.184 913.906 330.645 913.554 329.952C913.212 329.248 913.042 328.437 913.042 327.52C913.042 326.603 913.212 325.797 913.554 325.104C913.906 324.411 914.38 323.877 914.978 323.504C915.575 323.131 916.242 322.944 916.978 322.944ZM919.73 327.536C919.73 326.853 919.538 326.315 919.154 325.92C918.78 325.525 918.322 325.328 917.778 325.328C917.234 325.328 916.77 325.525 916.386 325.92C916.012 326.304 915.826 326.837 915.826 327.52C915.826 328.203 916.012 328.747 916.386 329.152C916.77 329.547 917.234 329.744 917.778 329.744C918.322 329.744 918.78 329.547 919.154 329.152C919.538 328.757 919.73 328.219 919.73 327.536ZM933.261 323.072V332H930.525V330.784C930.248 331.179 929.869 331.499 929.389 331.744C928.92 331.979 928.397 332.096 927.821 332.096C927.138 332.096 926.536 331.947 926.013 331.648C925.49 331.339 925.085 330.896 924.797 330.32C924.509 329.744 924.365 329.067 924.365 328.288V323.072H927.085V327.92C927.085 328.517 927.24 328.981 927.549 329.312C927.858 329.643 928.274 329.808 928.797 329.808C929.33 329.808 929.752 329.643 930.061 329.312C930.37 328.981 930.525 328.517 930.525 327.92V323.072H933.261ZM938.858 332.128C938.08 332.128 937.386 331.995 936.778 331.728C936.17 331.461 935.69 331.099 935.338 330.64C934.986 330.171 934.789 329.648 934.746 329.072H937.45C937.482 329.381 937.626 329.632 937.882 329.824C938.138 330.016 938.453 330.112 938.826 330.112C939.168 330.112 939.429 330.048 939.61 329.92C939.802 329.781 939.898 329.605 939.898 329.392C939.898 329.136 939.765 328.949 939.498 328.832C939.232 328.704 938.8 328.565 938.202 328.416C937.562 328.267 937.029 328.112 936.602 327.952C936.176 327.781 935.808 327.52 935.498 327.168C935.189 326.805 935.034 326.32 935.034 325.712C935.034 325.2 935.173 324.736 935.45 324.32C935.738 323.893 936.154 323.557 936.698 323.312C937.253 323.067 937.909 322.944 938.666 322.944C939.786 322.944 940.666 323.221 941.306 323.776C941.957 324.331 942.33 325.067 942.426 325.984H939.898C939.856 325.675 939.717 325.429 939.482 325.248C939.258 325.067 938.96 324.976 938.586 324.976C938.266 324.976 938.021 325.04 937.85 325.168C937.68 325.285 937.594 325.451 937.594 325.664C937.594 325.92 937.728 326.112 937.994 326.24C938.272 326.368 938.698 326.496 939.274 326.624C939.936 326.795 940.474 326.965 940.89 327.136C941.306 327.296 941.669 327.563 941.978 327.936C942.298 328.299 942.464 328.789 942.474 329.408C942.474 329.931 942.325 330.4 942.026 330.816C941.738 331.221 941.317 331.541 940.762 331.776C940.218 332.011 939.584 332.128 938.858 332.128ZM949.124 329.68V332H947.732C946.74 332 945.967 331.76 945.412 331.28C944.858 330.789 944.58 329.995 944.58 328.896V325.344H943.492V323.072H944.58V320.896H947.316V323.072H949.108V325.344H947.316V328.928C947.316 329.195 947.38 329.387 947.508 329.504C947.636 329.621 947.85 329.68 948.148 329.68H949.124Z" fill="url(#paint7_linear_201_332)"/>
<path d="M854.448 400.864V398.32H858.88V410H856.032V400.864H854.448ZM860.655 407.808C861.018 407.52 861.183 407.387 861.151 407.408C862.197 406.544 863.018 405.835 863.615 405.28C864.223 404.725 864.735 404.144 865.151 403.536C865.567 402.928 865.775 402.336 865.775 401.76C865.775 401.323 865.674 400.981 865.471 400.736C865.269 400.491 864.965 400.368 864.559 400.368C864.154 400.368 863.834 400.523 863.599 400.832C863.375 401.131 863.263 401.557 863.263 402.112H860.623C860.645 401.205 860.837 400.448 861.199 399.84C861.573 399.232 862.058 398.784 862.655 398.496C863.263 398.208 863.935 398.064 864.671 398.064C865.941 398.064 866.895 398.389 867.535 399.04C868.186 399.691 868.511 400.539 868.511 401.584C868.511 402.725 868.122 403.787 867.343 404.768C866.565 405.739 865.573 406.688 864.367 407.616H868.687V409.84H860.655V407.808ZM877.619 410.112C876.797 410.112 876.061 409.979 875.411 409.712C874.76 409.445 874.237 409.051 873.843 408.528C873.459 408.005 873.256 407.376 873.235 406.64H876.147C876.189 407.056 876.333 407.376 876.579 407.6C876.824 407.813 877.144 407.92 877.539 407.92C877.944 407.92 878.264 407.829 878.499 407.648C878.733 407.456 878.851 407.195 878.851 406.864C878.851 406.587 878.755 406.357 878.563 406.176C878.381 405.995 878.152 405.845 877.875 405.728C877.608 405.611 877.224 405.477 876.723 405.328C875.997 405.104 875.405 404.88 874.947 404.656C874.488 404.432 874.093 404.101 873.763 403.664C873.432 403.227 873.267 402.656 873.267 401.952C873.267 400.907 873.645 400.091 874.403 399.504C875.16 398.907 876.147 398.608 877.363 398.608C878.6 398.608 879.597 398.907 880.355 399.504C881.112 400.091 881.517 400.912 881.571 401.968H878.611C878.589 401.605 878.456 401.323 878.211 401.12C877.965 400.907 877.651 400.8 877.266 400.8C876.936 400.8 876.669 400.891 876.467 401.072C876.264 401.243 876.163 401.493 876.163 401.824C876.163 402.187 876.333 402.469 876.674 402.672C877.016 402.875 877.549 403.093 878.275 403.328C879 403.573 879.587 403.808 880.035 404.032C880.493 404.256 880.888 404.581 881.219 405.008C881.549 405.435 881.715 405.984 881.715 406.656C881.715 407.296 881.549 407.877 881.219 408.4C880.899 408.923 880.429 409.339 879.811 409.648C879.192 409.957 878.461 410.112 877.619 410.112ZM891.814 405.392C891.814 405.648 891.798 405.915 891.766 406.192H885.574C885.617 406.747 885.793 407.173 886.102 407.472C886.422 407.76 886.812 407.904 887.27 407.904C887.953 407.904 888.428 407.616 888.694 407.04H891.606C891.457 407.627 891.185 408.155 890.79 408.624C890.406 409.093 889.921 409.461 889.334 409.728C888.748 409.995 888.092 410.128 887.366 410.128C886.492 410.128 885.713 409.941 885.03 409.568C884.348 409.195 883.814 408.661 883.43 407.968C883.046 407.275 882.854 406.464 882.854 405.536C882.854 404.608 883.041 403.797 883.414 403.104C883.798 402.411 884.332 401.877 885.014 401.504C885.697 401.131 886.481 400.944 887.366 400.944C888.23 400.944 888.998 401.125 889.67 401.488C890.342 401.851 890.865 402.368 891.238 403.04C891.622 403.712 891.814 404.496 891.814 405.392ZM889.014 404.672C889.014 404.203 888.854 403.829 888.534 403.552C888.214 403.275 887.814 403.136 887.334 403.136C886.876 403.136 886.486 403.269 886.166 403.536C885.857 403.803 885.665 404.181 885.59 404.672H889.014ZM895.994 402.336C896.26 401.92 896.628 401.584 897.098 401.328C897.567 401.072 898.116 400.944 898.746 400.944C899.482 400.944 900.148 401.131 900.746 401.504C901.343 401.877 901.812 402.411 902.154 403.104C902.506 403.797 902.682 404.603 902.682 405.52C902.682 406.437 902.506 407.248 902.154 407.952C901.812 408.645 901.343 409.184 900.746 409.568C900.148 409.941 899.482 410.128 898.746 410.128C898.127 410.128 897.578 410 897.098 409.744C896.628 409.488 896.26 409.157 895.994 408.752V414.256H893.258V401.072H895.994V402.336ZM899.898 405.52C899.898 404.837 899.706 404.304 899.322 403.92C898.948 403.525 898.484 403.328 897.93 403.328C897.386 403.328 896.922 403.525 896.538 403.92C896.164 404.315 895.978 404.853 895.978 405.536C895.978 406.219 896.164 406.757 896.538 407.152C896.922 407.547 897.386 407.744 897.93 407.744C898.474 407.744 898.938 407.547 899.322 407.152C899.706 406.747 899.898 406.203 899.898 405.52ZM909.093 407.68V410H907.701C906.709 410 905.936 409.76 905.381 409.28C904.826 408.789 904.549 407.995 904.549 406.896V403.344H903.461V401.072H904.549V398.896H907.285V401.072H909.077V403.344H907.285V406.928C907.285 407.195 907.349 407.387 907.477 407.504C907.605 407.621 907.818 407.68 908.117 407.68H909.093ZM919.033 405.392C919.033 405.648 919.017 405.915 918.985 406.192H912.793C912.836 406.747 913.012 407.173 913.321 407.472C913.641 407.76 914.03 407.904 914.489 407.904C915.172 407.904 915.646 407.616 915.913 407.04H918.825C918.676 407.627 918.404 408.155 918.009 408.624C917.625 409.093 917.14 409.461 916.553 409.728C915.966 409.995 915.31 410.128 914.585 410.128C913.71 410.128 912.932 409.941 912.249 409.568C911.566 409.195 911.033 408.661 910.649 407.968C910.265 407.275 910.073 406.464 910.073 405.536C910.073 404.608 910.26 403.797 910.633 403.104C911.017 402.411 911.55 401.877 912.233 401.504C912.916 401.131 913.7 400.944 914.585 400.944C915.449 400.944 916.217 401.125 916.889 401.488C917.561 401.851 918.084 402.368 918.457 403.04C918.841 403.712 919.033 404.496 919.033 405.392ZM916.233 404.672C916.233 404.203 916.073 403.829 915.753 403.552C915.433 403.275 915.033 403.136 914.553 403.136C914.094 403.136 913.705 403.269 913.385 403.536C913.076 403.803 912.884 404.181 912.809 404.672H916.233ZM931.868 400.976C932.978 400.976 933.858 401.312 934.508 401.984C935.17 402.656 935.5 403.589 935.5 404.784V410H932.78V405.152C932.78 404.576 932.626 404.133 932.316 403.824C932.018 403.504 931.602 403.344 931.068 403.344C930.535 403.344 930.114 403.504 929.804 403.824C929.506 404.133 929.356 404.576 929.356 405.152V410H926.636V405.152C926.636 404.576 926.482 404.133 926.172 403.824C925.874 403.504 925.458 403.344 924.924 403.344C924.391 403.344 923.97 403.504 923.66 403.824C923.362 404.133 923.212 404.576 923.212 405.152V410H920.476V401.072H923.212V402.192C923.49 401.819 923.852 401.525 924.3 401.312C924.748 401.088 925.255 400.976 925.82 400.976C926.492 400.976 927.09 401.12 927.612 401.408C928.146 401.696 928.562 402.107 928.86 402.64C929.17 402.149 929.591 401.749 930.124 401.44C930.658 401.131 931.239 400.976 931.868 400.976ZM940.15 402.336C940.406 401.92 940.774 401.584 941.254 401.328C941.734 401.072 942.283 400.944 942.902 400.944C943.638 400.944 944.305 401.131 944.902 401.504C945.499 401.877 945.969 402.411 946.31 403.104C946.662 403.797 946.838 404.603 946.838 405.52C946.838 406.437 946.662 407.248 946.31 407.952C945.969 408.645 945.499 409.184 944.902 409.568C944.305 409.941 943.638 410.128 942.902 410.128C942.273 410.128 941.723 410.005 941.254 409.76C940.785 409.504 940.417 409.168 940.15 408.752V410H937.414V398.16H940.15V402.336ZM944.054 405.52C944.054 404.837 943.862 404.304 943.478 403.92C943.105 403.525 942.641 403.328 942.086 403.328C941.542 403.328 941.078 403.525 940.694 403.92C940.321 404.315 940.134 404.853 940.134 405.536C940.134 406.219 940.321 406.757 940.694 407.152C941.078 407.547 941.542 407.744 942.086 407.744C942.63 407.744 943.094 407.547 943.478 407.152C943.862 406.747 944.054 406.203 944.054 405.52ZM956.689 405.392C956.689 405.648 956.673 405.915 956.641 406.192H950.449C950.492 406.747 950.668 407.173 950.977 407.472C951.297 407.76 951.687 407.904 952.145 407.904C952.828 407.904 953.303 407.616 953.569 407.04H956.481C956.332 407.627 956.06 408.155 955.665 408.624C955.281 409.093 954.796 409.461 954.209 409.728C953.623 409.995 952.967 410.128 952.241 410.128C951.367 410.128 950.588 409.941 949.905 409.568C949.223 409.195 948.689 408.661 948.305 407.968C947.921 407.275 947.729 406.464 947.729 405.536C947.729 404.608 947.916 403.797 948.289 403.104C948.673 402.411 949.207 401.877 949.889 401.504C950.572 401.131 951.356 400.944 952.241 400.944C953.105 400.944 953.873 401.125 954.545 401.488C955.217 401.851 955.74 402.368 956.113 403.04C956.497 403.712 956.689 404.496 956.689 405.392ZM953.889 404.672C953.889 404.203 953.729 403.829 953.409 403.552C953.089 403.275 952.689 403.136 952.209 403.136C951.751 403.136 951.361 403.269 951.041 403.536C950.732 403.803 950.54 404.181 950.465 404.672H953.889ZM960.869 402.56C961.189 402.069 961.589 401.685 962.069 401.408C962.549 401.12 963.082 400.976 963.669 400.976V403.872H962.917C962.234 403.872 961.722 404.021 961.381 404.32C961.039 404.608 960.869 405.12 960.869 405.856V410H958.133V401.072H960.869V402.56Z" fill="url(#paint8_linear_201_332)"/>
<path d="M904.972 479.616C905.015 478.475 905.388 477.595 906.092 476.976C906.796 476.357 907.751 476.048 908.956 476.048C909.756 476.048 910.439 476.187 911.004 476.464C911.58 476.741 912.012 477.12 912.3 477.6C912.599 478.08 912.748 478.619 912.748 479.216C912.748 479.92 912.572 480.496 912.22 480.944C911.868 481.381 911.458 481.68 910.988 481.84V481.904C911.596 482.107 912.076 482.443 912.428 482.912C912.78 483.381 912.956 483.984 912.956 484.72C912.956 485.381 912.802 485.968 912.492 486.48C912.194 486.981 911.751 487.376 911.164 487.664C910.588 487.952 909.9 488.096 909.1 488.096C907.82 488.096 906.796 487.781 906.028 487.152C905.271 486.523 904.871 485.573 904.828 484.304H907.484C907.495 484.773 907.628 485.147 907.884 485.424C908.14 485.691 908.514 485.824 909.004 485.824C909.42 485.824 909.74 485.707 909.964 485.472C910.199 485.227 910.316 484.907 910.316 484.512C910.316 484 910.151 483.632 909.82 483.408C909.5 483.173 908.983 483.056 908.268 483.056H907.756V480.832H908.268C908.812 480.832 909.25 480.741 909.58 480.56C909.922 480.368 910.092 480.032 910.092 479.552C910.092 479.168 909.986 478.869 909.772 478.656C909.559 478.443 909.266 478.336 908.892 478.336C908.487 478.336 908.183 478.459 907.98 478.704C907.788 478.949 907.676 479.253 907.644 479.616H904.972Z" fill="url(#paint9_linear_201_332)"/>
<path d="M1242.6 166.864V164.32H1247.04V176H1244.19V166.864H1242.6ZM1250.83 169.728C1249.82 169.195 1249.32 168.357 1249.32 167.216C1249.32 166.64 1249.47 166.117 1249.77 165.648C1250.07 165.168 1250.52 164.789 1251.13 164.512C1251.74 164.224 1252.49 164.08 1253.37 164.08C1254.26 164.08 1255 164.224 1255.6 164.512C1256.2 164.789 1256.66 165.168 1256.96 165.648C1257.25 166.117 1257.4 166.64 1257.4 167.216C1257.4 167.792 1257.26 168.293 1256.99 168.72C1256.72 169.147 1256.36 169.483 1255.9 169.728C1256.48 170.005 1256.92 170.389 1257.23 170.88C1257.54 171.36 1257.69 171.925 1257.69 172.576C1257.69 173.333 1257.5 173.989 1257.12 174.544C1256.73 175.088 1256.21 175.504 1255.55 175.792C1254.9 176.08 1254.17 176.224 1253.37 176.224C1252.57 176.224 1251.84 176.08 1251.18 175.792C1250.53 175.504 1250.01 175.088 1249.63 174.544C1249.24 173.989 1249.05 173.333 1249.05 172.576C1249.05 171.915 1249.21 171.344 1249.52 170.864C1249.82 170.373 1250.26 169.995 1250.83 169.728ZM1254.75 167.632C1254.75 167.195 1254.62 166.859 1254.36 166.624C1254.12 166.379 1253.79 166.256 1253.37 166.256C1252.96 166.256 1252.62 166.379 1252.36 166.624C1252.12 166.869 1252 167.211 1252 167.648C1252 168.064 1252.12 168.395 1252.38 168.64C1252.64 168.875 1252.97 168.992 1253.37 168.992C1253.78 168.992 1254.11 168.869 1254.36 168.624C1254.62 168.379 1254.75 168.048 1254.75 167.632ZM1253.37 170.912C1252.87 170.912 1252.46 171.051 1252.16 171.328C1251.85 171.595 1251.69 171.968 1251.69 172.448C1251.69 172.896 1251.84 173.264 1252.14 173.552C1252.45 173.84 1252.86 173.984 1253.37 173.984C1253.88 173.984 1254.28 173.84 1254.57 173.552C1254.87 173.264 1255.02 172.896 1255.02 172.448C1255.02 171.979 1254.86 171.605 1254.56 171.328C1254.26 171.051 1253.86 170.912 1253.37 170.912ZM1259.28 170C1259.28 168.165 1259.63 166.72 1260.34 165.664C1261.05 164.608 1262.2 164.08 1263.78 164.08C1265.36 164.08 1266.5 164.608 1267.2 165.664C1267.92 166.72 1268.27 168.165 1268.27 170C1268.27 171.856 1267.92 173.312 1267.2 174.368C1266.5 175.424 1265.36 175.952 1263.78 175.952C1262.2 175.952 1261.05 175.424 1260.34 174.368C1259.63 173.312 1259.28 171.856 1259.28 170ZM1265.59 170C1265.59 168.923 1265.47 168.096 1265.23 167.52C1265 166.933 1264.51 166.64 1263.78 166.64C1263.04 166.64 1262.56 166.933 1262.32 167.52C1262.09 168.096 1261.97 168.923 1261.97 170C1261.97 170.725 1262.01 171.328 1262.1 171.808C1262.18 172.277 1262.35 172.661 1262.61 172.96C1262.88 173.248 1263.27 173.392 1263.78 173.392C1264.29 173.392 1264.67 173.248 1264.93 172.96C1265.2 172.661 1265.37 172.277 1265.46 171.808C1265.54 171.328 1265.59 170.725 1265.59 170ZM1271.27 176.128C1270.79 176.128 1270.4 175.989 1270.09 175.712C1269.79 175.424 1269.64 175.072 1269.64 174.656C1269.64 174.229 1269.79 173.872 1270.09 173.584C1270.4 173.296 1270.79 173.152 1271.27 173.152C1271.74 173.152 1272.13 173.296 1272.42 173.584C1272.73 173.872 1272.89 174.229 1272.89 174.656C1272.89 175.072 1272.73 175.424 1272.42 175.712C1272.13 175.989 1271.74 176.128 1271.27 176.128ZM1274.24 170C1274.24 168.165 1274.59 166.72 1275.29 165.664C1276.01 164.608 1277.15 164.08 1278.73 164.08C1280.31 164.08 1281.45 164.608 1282.16 165.664C1282.87 166.72 1283.23 168.165 1283.23 170C1283.23 171.856 1282.87 173.312 1282.16 174.368C1281.45 175.424 1280.31 175.952 1278.73 175.952C1277.15 175.952 1276.01 175.424 1275.29 174.368C1274.59 173.312 1274.24 171.856 1274.24 170ZM1280.54 170C1280.54 168.923 1280.42 168.096 1280.19 167.52C1279.95 166.933 1279.47 166.64 1278.73 166.64C1278 166.64 1277.51 166.933 1277.28 167.52C1277.04 168.096 1276.92 168.923 1276.92 170C1276.92 170.725 1276.97 171.328 1277.05 171.808C1277.14 172.277 1277.31 172.661 1277.56 172.96C1277.83 173.248 1278.22 173.392 1278.73 173.392C1279.24 173.392 1279.63 173.248 1279.88 172.96C1280.15 172.661 1280.33 172.277 1280.41 171.808C1280.5 171.328 1280.54 170.725 1280.54 170ZM1284.67 170C1284.67 168.165 1285.03 166.72 1285.73 165.664C1286.44 164.608 1287.59 164.08 1289.17 164.08C1290.75 164.08 1291.89 164.608 1292.59 165.664C1293.31 166.72 1293.67 168.165 1293.67 170C1293.67 171.856 1293.31 173.312 1292.59 174.368C1291.89 175.424 1290.75 175.952 1289.17 175.952C1287.59 175.952 1286.44 175.424 1285.73 174.368C1285.03 173.312 1284.67 171.856 1284.67 170ZM1290.98 170C1290.98 168.923 1290.86 168.096 1290.63 167.52C1290.39 166.933 1289.91 166.64 1289.17 166.64C1288.43 166.64 1287.95 166.933 1287.71 167.52C1287.48 168.096 1287.36 168.923 1287.36 170C1287.36 170.725 1287.4 171.328 1287.49 171.808C1287.57 172.277 1287.75 172.661 1288 172.96C1288.27 173.248 1288.66 173.392 1289.17 173.392C1289.68 173.392 1290.07 173.248 1290.32 172.96C1290.59 172.661 1290.76 172.277 1290.85 171.808C1290.93 171.328 1290.98 170.725 1290.98 170ZM1295.11 170C1295.11 168.165 1295.46 166.72 1296.17 165.664C1296.88 164.608 1298.03 164.08 1299.61 164.08C1301.19 164.08 1302.33 164.608 1303.03 165.664C1303.75 166.72 1304.1 168.165 1304.1 170C1304.1 171.856 1303.75 173.312 1303.03 174.368C1302.33 175.424 1301.19 175.952 1299.61 175.952C1298.03 175.952 1296.88 175.424 1296.17 174.368C1295.46 173.312 1295.11 171.856 1295.11 170ZM1301.41 170C1301.41 168.923 1301.3 168.096 1301.06 167.52C1300.83 166.933 1300.34 166.64 1299.61 166.64C1298.87 166.64 1298.39 166.933 1298.15 167.52C1297.92 168.096 1297.8 168.923 1297.8 170C1297.8 170.725 1297.84 171.328 1297.93 171.808C1298.01 172.277 1298.18 172.661 1298.44 172.96C1298.71 173.248 1299.09 173.392 1299.61 173.392C1300.12 173.392 1300.5 173.248 1300.76 172.96C1301.03 172.661 1301.2 172.277 1301.29 171.808C1301.37 171.328 1301.41 170.725 1301.41 170Z" fill="url(#paint10_linear_201_332)"/>
<path d="M1260.91 251.92V249.712L1265.97 242.48H1269.02V249.552H1270.33V251.92H1269.02V254H1266.29V251.92H1260.91ZM1266.48 245.488L1263.79 249.552H1266.48V245.488ZM1273.23 254.128C1272.75 254.128 1272.35 253.989 1272.04 253.712C1271.74 253.424 1271.59 253.072 1271.59 252.656C1271.59 252.229 1271.74 251.872 1272.04 251.584C1272.35 251.296 1272.75 251.152 1273.23 251.152C1273.69 251.152 1274.08 251.296 1274.38 251.584C1274.69 251.872 1274.84 252.229 1274.84 252.656C1274.84 253.072 1274.69 253.424 1274.38 253.712C1274.08 253.989 1273.69 254.128 1273.23 254.128ZM1284.41 244.704H1279.42V246.912C1279.63 246.677 1279.93 246.485 1280.32 246.336C1280.7 246.187 1281.12 246.112 1281.56 246.112C1282.36 246.112 1283.03 246.293 1283.55 246.656C1284.08 247.019 1284.47 247.488 1284.72 248.064C1284.96 248.64 1285.08 249.264 1285.08 249.936C1285.08 251.184 1284.73 252.176 1284.03 252.912C1283.32 253.637 1282.33 254 1281.05 254C1280.2 254 1279.46 253.856 1278.83 253.568C1278.2 253.269 1277.71 252.859 1277.37 252.336C1277.03 251.813 1276.84 251.211 1276.81 250.528H1279.48C1279.55 250.859 1279.7 251.136 1279.95 251.36C1280.19 251.573 1280.53 251.68 1280.96 251.68C1281.46 251.68 1281.83 251.52 1282.08 251.2C1282.32 250.88 1282.44 250.453 1282.44 249.92C1282.44 249.397 1282.32 248.997 1282.06 248.72C1281.8 248.443 1281.43 248.304 1280.94 248.304C1280.58 248.304 1280.28 248.395 1280.04 248.576C1279.81 248.747 1279.66 248.976 1279.58 249.264H1276.94V242.304H1284.41V244.704Z" fill="url(#paint11_linear_201_332)"/>
<path d="M1218.45 322.864V320.32H1222.88V332H1220.03V322.864H1218.45ZM1224.66 329.808C1225.02 329.52 1225.18 329.387 1225.15 329.408C1226.2 328.544 1227.02 327.835 1227.62 327.28C1228.22 326.725 1228.74 326.144 1229.15 325.536C1229.57 324.928 1229.78 324.336 1229.78 323.76C1229.78 323.323 1229.67 322.981 1229.47 322.736C1229.27 322.491 1228.96 322.368 1228.56 322.368C1228.15 322.368 1227.83 322.523 1227.6 322.832C1227.38 323.131 1227.26 323.557 1227.26 324.112H1224.62C1224.64 323.205 1224.84 322.448 1225.2 321.84C1225.57 321.232 1226.06 320.784 1226.66 320.496C1227.26 320.208 1227.94 320.064 1228.67 320.064C1229.94 320.064 1230.9 320.389 1231.54 321.04C1232.19 321.691 1232.51 322.539 1232.51 323.584C1232.51 324.725 1232.12 325.787 1231.34 326.768C1230.56 327.739 1229.57 328.688 1228.37 329.616H1232.69V331.84H1224.66V329.808ZM1241.62 332.112C1240.8 332.112 1240.06 331.979 1239.41 331.712C1238.76 331.445 1238.24 331.051 1237.84 330.528C1237.46 330.005 1237.26 329.376 1237.23 328.64H1240.15C1240.19 329.056 1240.33 329.376 1240.58 329.6C1240.82 329.813 1241.14 329.92 1241.54 329.92C1241.94 329.92 1242.26 329.829 1242.5 329.648C1242.73 329.456 1242.85 329.195 1242.85 328.864C1242.85 328.587 1242.75 328.357 1242.56 328.176C1242.38 327.995 1242.15 327.845 1241.87 327.728C1241.61 327.611 1241.22 327.477 1240.72 327.328C1240 327.104 1239.41 326.88 1238.95 326.656C1238.49 326.432 1238.09 326.101 1237.76 325.664C1237.43 325.227 1237.27 324.656 1237.27 323.952C1237.27 322.907 1237.65 322.091 1238.4 321.504C1239.16 320.907 1240.15 320.608 1241.36 320.608C1242.6 320.608 1243.6 320.907 1244.35 321.504C1245.11 322.091 1245.52 322.912 1245.57 323.968H1242.61C1242.59 323.605 1242.46 323.323 1242.21 323.12C1241.97 322.907 1241.65 322.8 1241.27 322.8C1240.94 322.8 1240.67 322.891 1240.47 323.072C1240.26 323.243 1240.16 323.493 1240.16 323.824C1240.16 324.187 1240.33 324.469 1240.67 324.672C1241.02 324.875 1241.55 325.093 1242.27 325.328C1243 325.573 1243.59 325.808 1244.03 326.032C1244.49 326.256 1244.89 326.581 1245.22 327.008C1245.55 327.435 1245.71 327.984 1245.71 328.656C1245.71 329.296 1245.55 329.877 1245.22 330.4C1244.9 330.923 1244.43 331.339 1243.81 331.648C1243.19 331.957 1242.46 332.112 1241.62 332.112ZM1255.81 327.392C1255.81 327.648 1255.8 327.915 1255.77 328.192H1249.57C1249.62 328.747 1249.79 329.173 1250.1 329.472C1250.42 329.76 1250.81 329.904 1251.27 329.904C1251.95 329.904 1252.43 329.616 1252.69 329.04H1255.61C1255.46 329.627 1255.18 330.155 1254.79 330.624C1254.41 331.093 1253.92 331.461 1253.33 331.728C1252.75 331.995 1252.09 332.128 1251.37 332.128C1250.49 332.128 1249.71 331.941 1249.03 331.568C1248.35 331.195 1247.81 330.661 1247.43 329.968C1247.05 329.275 1246.85 328.464 1246.85 327.536C1246.85 326.608 1247.04 325.797 1247.41 325.104C1247.8 324.411 1248.33 323.877 1249.01 323.504C1249.7 323.131 1250.48 322.944 1251.37 322.944C1252.23 322.944 1253 323.125 1253.67 323.488C1254.34 323.851 1254.86 324.368 1255.24 325.04C1255.62 325.712 1255.81 326.496 1255.81 327.392ZM1253.01 326.672C1253.01 326.203 1252.85 325.829 1252.53 325.552C1252.21 325.275 1251.81 325.136 1251.33 325.136C1250.88 325.136 1250.49 325.269 1250.17 325.536C1249.86 325.803 1249.66 326.181 1249.59 326.672H1253.01ZM1259.99 324.336C1260.26 323.92 1260.63 323.584 1261.1 323.328C1261.57 323.072 1262.12 322.944 1262.75 322.944C1263.48 322.944 1264.15 323.131 1264.75 323.504C1265.34 323.877 1265.81 324.411 1266.15 325.104C1266.51 325.797 1266.68 326.603 1266.68 327.52C1266.68 328.437 1266.51 329.248 1266.15 329.952C1265.81 330.645 1265.34 331.184 1264.75 331.568C1264.15 331.941 1263.48 332.128 1262.75 332.128C1262.13 332.128 1261.58 332 1261.1 331.744C1260.63 331.488 1260.26 331.157 1259.99 330.752V336.256H1257.26V323.072H1259.99V324.336ZM1263.9 327.52C1263.9 326.837 1263.71 326.304 1263.32 325.92C1262.95 325.525 1262.48 325.328 1261.93 325.328C1261.39 325.328 1260.92 325.525 1260.54 325.92C1260.16 326.315 1259.98 326.853 1259.98 327.536C1259.98 328.219 1260.16 328.757 1260.54 329.152C1260.92 329.547 1261.39 329.744 1261.93 329.744C1262.47 329.744 1262.94 329.547 1263.32 329.152C1263.71 328.747 1263.9 328.203 1263.9 327.52ZM1273.09 329.68V332H1271.7C1270.71 332 1269.94 331.76 1269.38 331.28C1268.83 330.789 1268.55 329.995 1268.55 328.896V325.344H1267.46V323.072H1268.55V320.896H1271.29V323.072H1273.08V325.344H1271.29V328.928C1271.29 329.195 1271.35 329.387 1271.48 329.504C1271.61 329.621 1271.82 329.68 1272.12 329.68H1273.09ZM1283.03 327.392C1283.03 327.648 1283.02 327.915 1282.99 328.192H1276.79C1276.84 328.747 1277.01 329.173 1277.32 329.472C1277.64 329.76 1278.03 329.904 1278.49 329.904C1279.17 329.904 1279.65 329.616 1279.91 329.04H1282.83C1282.68 329.627 1282.4 330.155 1282.01 330.624C1281.63 331.093 1281.14 331.461 1280.55 331.728C1279.97 331.995 1279.31 332.128 1278.59 332.128C1277.71 332.128 1276.93 331.941 1276.25 331.568C1275.57 331.195 1275.03 330.661 1274.65 329.968C1274.27 329.275 1274.07 328.464 1274.07 327.536C1274.07 326.608 1274.26 325.797 1274.63 325.104C1275.02 324.411 1275.55 323.877 1276.23 323.504C1276.92 323.131 1277.7 322.944 1278.59 322.944C1279.45 322.944 1280.22 323.125 1280.89 323.488C1281.56 323.851 1282.08 324.368 1282.46 325.04C1282.84 325.712 1283.03 326.496 1283.03 327.392ZM1280.23 326.672C1280.23 326.203 1280.07 325.829 1279.75 325.552C1279.43 325.275 1279.03 325.136 1278.55 325.136C1278.09 325.136 1277.71 325.269 1277.39 325.536C1277.08 325.803 1276.88 326.181 1276.81 326.672H1280.23ZM1295.87 322.976C1296.98 322.976 1297.86 323.312 1298.51 323.984C1299.17 324.656 1299.5 325.589 1299.5 326.784V332H1296.78V327.152C1296.78 326.576 1296.63 326.133 1296.32 325.824C1296.02 325.504 1295.6 325.344 1295.07 325.344C1294.54 325.344 1294.11 325.504 1293.8 325.824C1293.51 326.133 1293.36 326.576 1293.36 327.152V332H1290.64V327.152C1290.64 326.576 1290.48 326.133 1290.17 325.824C1289.87 325.504 1289.46 325.344 1288.92 325.344C1288.39 325.344 1287.97 325.504 1287.66 325.824C1287.36 326.133 1287.21 326.576 1287.21 327.152V332H1284.48V323.072H1287.21V324.192C1287.49 323.819 1287.85 323.525 1288.3 323.312C1288.75 323.088 1289.26 322.976 1289.82 322.976C1290.49 322.976 1291.09 323.12 1291.61 323.408C1292.15 323.696 1292.56 324.107 1292.86 324.64C1293.17 324.149 1293.59 323.749 1294.12 323.44C1294.66 323.131 1295.24 322.976 1295.87 322.976ZM1304.15 324.336C1304.41 323.92 1304.77 323.584 1305.25 323.328C1305.73 323.072 1306.28 322.944 1306.9 322.944C1307.64 322.944 1308.3 323.131 1308.9 323.504C1309.5 323.877 1309.97 324.411 1310.31 325.104C1310.66 325.797 1310.84 326.603 1310.84 327.52C1310.84 328.437 1310.66 329.248 1310.31 329.952C1309.97 330.645 1309.5 331.184 1308.9 331.568C1308.3 331.941 1307.64 332.128 1306.9 332.128C1306.27 332.128 1305.72 332.005 1305.25 331.76C1304.78 331.504 1304.42 331.168 1304.15 330.752V332H1301.41V320.16H1304.15V324.336ZM1308.05 327.52C1308.05 326.837 1307.86 326.304 1307.48 325.92C1307.1 325.525 1306.64 325.328 1306.09 325.328C1305.54 325.328 1305.08 325.525 1304.69 325.92C1304.32 326.315 1304.13 326.853 1304.13 327.536C1304.13 328.219 1304.32 328.757 1304.69 329.152C1305.08 329.547 1305.54 329.744 1306.09 329.744C1306.63 329.744 1307.09 329.547 1307.48 329.152C1307.86 328.747 1308.05 328.203 1308.05 327.52ZM1320.69 327.392C1320.69 327.648 1320.67 327.915 1320.64 328.192H1314.45C1314.49 328.747 1314.67 329.173 1314.98 329.472C1315.3 329.76 1315.69 329.904 1316.15 329.904C1316.83 329.904 1317.3 329.616 1317.57 329.04H1320.48C1320.33 329.627 1320.06 330.155 1319.67 330.624C1319.28 331.093 1318.8 331.461 1318.21 331.728C1317.62 331.995 1316.97 332.128 1316.24 332.128C1315.37 332.128 1314.59 331.941 1313.91 331.568C1313.22 331.195 1312.69 330.661 1312.31 329.968C1311.92 329.275 1311.73 328.464 1311.73 327.536C1311.73 326.608 1311.92 325.797 1312.29 325.104C1312.67 324.411 1313.21 323.877 1313.89 323.504C1314.57 323.131 1315.36 322.944 1316.24 322.944C1317.11 322.944 1317.87 323.125 1318.55 323.488C1319.22 323.851 1319.74 324.368 1320.11 325.04C1320.5 325.712 1320.69 326.496 1320.69 327.392ZM1317.89 326.672C1317.89 326.203 1317.73 325.829 1317.41 325.552C1317.09 325.275 1316.69 325.136 1316.21 325.136C1315.75 325.136 1315.36 325.269 1315.04 325.536C1314.73 325.803 1314.54 326.181 1314.47 326.672H1317.89ZM1324.87 324.56C1325.19 324.069 1325.59 323.685 1326.07 323.408C1326.55 323.12 1327.08 322.976 1327.67 322.976V325.872H1326.92C1326.23 325.872 1325.72 326.021 1325.38 326.32C1325.04 326.608 1324.87 327.12 1324.87 327.856V332H1322.13V323.072H1324.87V324.56Z" fill="url(#paint12_linear_201_332)"/>
<path d="M1234.02 401.616C1234.06 400.475 1234.44 399.595 1235.14 398.976C1235.84 398.357 1236.8 398.048 1238 398.048C1238.8 398.048 1239.49 398.187 1240.05 398.464C1240.63 398.741 1241.06 399.12 1241.35 399.6C1241.65 400.08 1241.8 400.619 1241.8 401.216C1241.8 401.92 1241.62 402.496 1241.27 402.944C1240.92 403.381 1240.5 403.68 1240.04 403.84V403.904C1240.64 404.107 1241.12 404.443 1241.48 404.912C1241.83 405.381 1242 405.984 1242 406.72C1242 407.381 1241.85 407.968 1241.54 408.48C1241.24 408.981 1240.8 409.376 1240.21 409.664C1239.64 409.952 1238.95 410.096 1238.15 410.096C1236.87 410.096 1235.84 409.781 1235.08 409.152C1234.32 408.523 1233.92 407.573 1233.88 406.304H1236.53C1236.54 406.773 1236.68 407.147 1236.93 407.424C1237.19 407.691 1237.56 407.824 1238.05 407.824C1238.47 407.824 1238.79 407.707 1239.01 407.472C1239.25 407.227 1239.36 406.907 1239.36 406.512C1239.36 406 1239.2 405.632 1238.87 405.408C1238.55 405.173 1238.03 405.056 1237.32 405.056H1236.8V402.832H1237.32C1237.86 402.832 1238.3 402.741 1238.63 402.56C1238.97 402.368 1239.14 402.032 1239.14 401.552C1239.14 401.168 1239.03 400.869 1238.82 400.656C1238.61 400.443 1238.31 400.336 1237.94 400.336C1237.53 400.336 1237.23 400.459 1237.03 400.704C1236.84 400.949 1236.72 401.253 1236.69 401.616H1234.02ZM1252.59 410.112C1251.53 410.112 1250.56 409.867 1249.67 409.376C1248.8 408.885 1248.1 408.203 1247.58 407.328C1247.07 406.443 1246.81 405.451 1246.81 404.352C1246.81 403.253 1247.07 402.267 1247.58 401.392C1248.1 400.517 1248.8 399.835 1249.67 399.344C1250.56 398.853 1251.53 398.608 1252.59 398.608C1253.64 398.608 1254.61 398.853 1255.48 399.344C1256.37 399.835 1257.06 400.517 1257.56 401.392C1258.07 402.267 1258.33 403.253 1258.33 404.352C1258.33 405.451 1258.07 406.443 1257.56 407.328C1257.05 408.203 1256.36 408.885 1255.48 409.376C1254.61 409.867 1253.64 410.112 1252.59 410.112ZM1252.59 407.616C1253.48 407.616 1254.2 407.317 1254.73 406.72C1255.27 406.123 1255.55 405.333 1255.55 404.352C1255.55 403.36 1255.27 402.571 1254.73 401.984C1254.2 401.387 1253.48 401.088 1252.59 401.088C1251.68 401.088 1250.95 401.381 1250.41 401.968C1249.88 402.555 1249.61 403.349 1249.61 404.352C1249.61 405.344 1249.88 406.139 1250.41 406.736C1250.95 407.323 1251.68 407.616 1252.59 407.616ZM1259.31 405.536C1259.31 404.608 1259.49 403.797 1259.87 403.104C1260.25 402.411 1260.78 401.877 1261.45 401.504C1262.13 401.131 1262.91 400.944 1263.79 400.944C1264.91 400.944 1265.84 401.237 1266.59 401.824C1267.34 402.411 1267.84 403.237 1268.08 404.304H1265.16C1264.92 403.621 1264.44 403.28 1263.74 403.28C1263.24 403.28 1262.84 403.477 1262.54 403.872C1262.24 404.256 1262.09 404.811 1262.09 405.536C1262.09 406.261 1262.24 406.821 1262.54 407.216C1262.84 407.6 1263.24 407.792 1263.74 407.792C1264.44 407.792 1264.92 407.451 1265.16 406.768H1268.08C1267.84 407.813 1267.34 408.635 1266.59 409.232C1265.83 409.829 1264.9 410.128 1263.79 410.128C1262.91 410.128 1262.13 409.941 1261.45 409.568C1260.78 409.195 1260.25 408.661 1259.87 407.968C1259.49 407.275 1259.31 406.464 1259.31 405.536ZM1274.51 407.68V410H1273.12C1272.13 410 1271.36 409.76 1270.8 409.28C1270.25 408.789 1269.97 407.995 1269.97 406.896V403.344H1268.88V401.072H1269.97V398.896H1272.71V401.072H1274.5V403.344H1272.71V406.928C1272.71 407.195 1272.77 407.387 1272.9 407.504C1273.03 407.621 1273.24 407.68 1273.54 407.68H1274.51ZM1280.1 410.128C1279.23 410.128 1278.44 409.941 1277.73 409.568C1277.04 409.195 1276.49 408.661 1276.09 407.968C1275.69 407.275 1275.49 406.464 1275.49 405.536C1275.49 404.619 1275.7 403.813 1276.1 403.12C1276.51 402.416 1277.06 401.877 1277.77 401.504C1278.47 401.131 1279.26 400.944 1280.13 400.944C1281.01 400.944 1281.8 401.131 1282.5 401.504C1283.21 401.877 1283.76 402.416 1284.17 403.12C1284.57 403.813 1284.77 404.619 1284.77 405.536C1284.77 406.453 1284.57 407.264 1284.15 407.968C1283.75 408.661 1283.19 409.195 1282.47 409.568C1281.77 409.941 1280.98 410.128 1280.1 410.128ZM1280.1 407.76C1280.63 407.76 1281.07 407.568 1281.43 407.184C1281.8 406.8 1281.99 406.251 1281.99 405.536C1281.99 404.821 1281.81 404.272 1281.45 403.888C1281.09 403.504 1280.66 403.312 1280.13 403.312C1279.6 403.312 1279.16 403.504 1278.81 403.888C1278.45 404.261 1278.28 404.811 1278.28 405.536C1278.28 406.251 1278.45 406.8 1278.79 407.184C1279.14 407.568 1279.58 407.76 1280.1 407.76ZM1288.96 402.336C1289.22 401.92 1289.59 401.584 1290.07 401.328C1290.55 401.072 1291.1 400.944 1291.71 400.944C1292.45 400.944 1293.12 401.131 1293.71 401.504C1294.31 401.877 1294.78 402.411 1295.12 403.104C1295.47 403.797 1295.65 404.603 1295.65 405.52C1295.65 406.437 1295.47 407.248 1295.12 407.952C1294.78 408.645 1294.31 409.184 1293.71 409.568C1293.12 409.941 1292.45 410.128 1291.71 410.128C1291.09 410.128 1290.54 410.005 1290.07 409.76C1289.6 409.504 1289.23 409.168 1288.96 408.752V410H1286.23V398.16H1288.96V402.336ZM1292.87 405.52C1292.87 404.837 1292.67 404.304 1292.29 403.92C1291.92 403.525 1291.45 403.328 1290.9 403.328C1290.35 403.328 1289.89 403.525 1289.51 403.92C1289.13 404.315 1288.95 404.853 1288.95 405.536C1288.95 406.219 1289.13 406.757 1289.51 407.152C1289.89 407.547 1290.35 407.744 1290.9 407.744C1291.44 407.744 1291.91 407.547 1292.29 407.152C1292.67 406.747 1292.87 406.203 1292.87 405.52ZM1305.5 405.392C1305.5 405.648 1305.49 405.915 1305.45 406.192H1299.26C1299.3 406.747 1299.48 407.173 1299.79 407.472C1300.11 407.76 1300.5 407.904 1300.96 407.904C1301.64 407.904 1302.12 407.616 1302.38 407.04H1305.29C1305.14 407.627 1304.87 408.155 1304.48 408.624C1304.09 409.093 1303.61 409.461 1303.02 409.728C1302.44 409.995 1301.78 410.128 1301.05 410.128C1300.18 410.128 1299.4 409.941 1298.72 409.568C1298.04 409.195 1297.5 408.661 1297.12 407.968C1296.73 407.275 1296.54 406.464 1296.54 405.536C1296.54 404.608 1296.73 403.797 1297.1 403.104C1297.49 402.411 1298.02 401.877 1298.7 401.504C1299.38 401.131 1300.17 400.944 1301.05 400.944C1301.92 400.944 1302.69 401.125 1303.36 401.488C1304.03 401.851 1304.55 402.368 1304.93 403.04C1305.31 403.712 1305.5 404.496 1305.5 405.392ZM1302.7 404.672C1302.7 404.203 1302.54 403.829 1302.22 403.552C1301.9 403.275 1301.5 403.136 1301.02 403.136C1300.56 403.136 1300.17 403.269 1299.85 403.536C1299.54 403.803 1299.35 404.181 1299.28 404.672H1302.7ZM1309.68 402.56C1310 402.069 1310.4 401.685 1310.88 401.408C1311.36 401.12 1311.89 400.976 1312.48 400.976V403.872H1311.73C1311.05 403.872 1310.53 404.021 1310.19 404.32C1309.85 404.608 1309.68 405.12 1309.68 405.856V410H1306.95V401.072H1309.68V402.56Z" fill="url(#paint13_linear_201_332)"/>
<path d="M1268.97 479.616C1269.01 478.475 1269.39 477.595 1270.09 476.976C1270.8 476.357 1271.75 476.048 1272.96 476.048C1273.76 476.048 1274.44 476.187 1275 476.464C1275.58 476.741 1276.01 477.12 1276.3 477.6C1276.6 478.08 1276.75 478.619 1276.75 479.216C1276.75 479.92 1276.57 480.496 1276.22 480.944C1275.87 481.381 1275.46 481.68 1274.99 481.84V481.904C1275.6 482.107 1276.08 482.443 1276.43 482.912C1276.78 483.381 1276.96 483.984 1276.96 484.72C1276.96 485.381 1276.8 485.968 1276.49 486.48C1276.19 486.981 1275.75 487.376 1275.16 487.664C1274.59 487.952 1273.9 488.096 1273.1 488.096C1271.82 488.096 1270.8 487.781 1270.03 487.152C1269.27 486.523 1268.87 485.573 1268.83 484.304H1271.48C1271.49 484.773 1271.63 485.147 1271.88 485.424C1272.14 485.691 1272.51 485.824 1273 485.824C1273.42 485.824 1273.74 485.707 1273.96 485.472C1274.2 485.227 1274.32 484.907 1274.32 484.512C1274.32 484 1274.15 483.632 1273.82 483.408C1273.5 483.173 1272.98 483.056 1272.27 483.056H1271.76V480.832H1272.27C1272.81 480.832 1273.25 480.741 1273.58 480.56C1273.92 480.368 1274.09 480.032 1274.09 479.552C1274.09 479.168 1273.99 478.869 1273.77 478.656C1273.56 478.443 1273.27 478.336 1272.89 478.336C1272.49 478.336 1272.18 478.459 1271.98 478.704C1271.79 478.949 1271.68 479.253 1271.64 479.616H1268.97Z" fill="url(#paint14_linear_201_332)"/>
<path d="M78.056 332.112C77.2347 332.112 76.4987 331.979 75.848 331.712C75.1973 331.445 74.6747 331.051 74.28 330.528C73.896 330.005 73.6933 329.376 73.672 328.64H76.584C76.6267 329.056 76.7707 329.376 77.016 329.6C77.2613 329.813 77.5813 329.92 77.976 329.92C78.3813 329.92 78.7013 329.829 78.936 329.648C79.1707 329.456 79.288 329.195 79.288 328.864C79.288 328.587 79.192 328.357 79 328.176C78.8187 327.995 78.5893 327.845 78.312 327.728C78.0453 327.611 77.6613 327.477 77.16 327.328C76.4347 327.104 75.8427 326.88 75.384 326.656C74.9253 326.432 74.5307 326.101 74.2 325.664C73.8693 325.227 73.704 324.656 73.704 323.952C73.704 322.907 74.0827 322.091 74.84 321.504C75.5973 320.907 76.584 320.608 77.8 320.608C79.0373 320.608 80.0347 320.907 80.792 321.504C81.5493 322.091 81.9547 322.912 82.008 323.968H79.048C79.0267 323.605 78.8933 323.323 78.648 323.12C78.4027 322.907 78.088 322.8 77.704 322.8C77.3733 322.8 77.1067 322.891 76.904 323.072C76.7013 323.243 76.6 323.493 76.6 323.824C76.6 324.187 76.7707 324.469 77.112 324.672C77.4533 324.875 77.9867 325.093 78.712 325.328C79.4373 325.573 80.024 325.808 80.472 326.032C80.9307 326.256 81.3253 326.581 81.656 327.008C81.9867 327.435 82.152 327.984 82.152 328.656C82.152 329.296 81.9867 329.877 81.656 330.4C81.336 330.923 80.8667 331.339 80.248 331.648C79.6293 331.957 78.8987 332.112 78.056 332.112ZM91.9158 320.768V322.96H88.9398V332H86.2038V322.96H83.2278V320.768H91.9158ZM100.281 330.016H96.0889L95.4169 332H92.5529L96.6169 320.768H99.7849L103.849 332H100.953L100.281 330.016ZM99.5769 327.904L98.1849 323.792L96.8089 327.904H99.5769ZM110.814 332L108.478 327.76H107.822V332H105.086V320.768H109.678C110.563 320.768 111.315 320.923 111.934 321.232C112.563 321.541 113.032 321.968 113.342 322.512C113.651 323.045 113.806 323.643 113.806 324.304C113.806 325.051 113.592 325.717 113.166 326.304C112.75 326.891 112.131 327.307 111.31 327.552L113.902 332H110.814ZM107.822 325.824H109.518C110.019 325.824 110.392 325.701 110.638 325.456C110.894 325.211 111.022 324.864 111.022 324.416C111.022 323.989 110.894 323.653 110.638 323.408C110.392 323.163 110.019 323.04 109.518 323.04H107.822V325.824ZM123.603 320.768V322.96H120.627V332H117.891V322.96H114.915V320.768H123.603ZM132.575 320.768C133.759 320.768 134.794 321.003 135.679 321.472C136.564 321.941 137.247 322.603 137.727 323.456C138.218 324.299 138.463 325.275 138.463 326.384C138.463 327.483 138.218 328.459 137.727 329.312C137.247 330.165 136.559 330.827 135.663 331.296C134.778 331.765 133.748 332 132.575 332H128.367V320.768H132.575ZM132.399 329.632C133.434 329.632 134.239 329.349 134.815 328.784C135.391 328.219 135.679 327.419 135.679 326.384C135.679 325.349 135.391 324.544 134.815 323.968C134.239 323.392 133.434 323.104 132.399 323.104H131.103V329.632H132.399ZM146.984 330.016H142.792L142.12 332H139.256L143.32 320.768H146.488L150.552 332H147.656L146.984 330.016ZM146.28 327.904L144.888 323.792L143.512 327.904H146.28ZM159.869 320.768V322.96H156.893V332H154.157V322.96H151.181V320.768H159.869ZM163.978 322.96V325.232H167.642V327.344H163.978V329.808H168.122V332H161.242V320.768H168.122V322.96H163.978Z" fill="white"/>
<path d="M73.496 245.264C73.496 244.4 73.7413 243.733 74.232 243.264C74.7333 242.795 75.3787 242.56 76.168 242.56C76.9573 242.56 77.5973 242.795 78.088 243.264C78.5787 243.733 78.824 244.4 78.824 245.264C78.824 246.128 78.5787 246.795 78.088 247.264C77.5973 247.733 76.9573 247.968 76.168 247.968C75.3787 247.968 74.7333 247.733 74.232 247.264C73.7413 246.795 73.496 246.128 73.496 245.264ZM84.36 242.736L78.2 254H75.56L81.72 242.736H84.36ZM76.152 244.16C75.64 244.16 75.384 244.528 75.384 245.264C75.384 245.989 75.64 246.352 76.152 246.352C76.3973 246.352 76.5893 246.261 76.728 246.08C76.8667 245.899 76.936 245.627 76.936 245.264C76.936 244.528 76.6747 244.16 76.152 244.16ZM81.112 251.472C81.112 250.608 81.3573 249.941 81.848 249.472C82.3387 249.003 82.9787 248.768 83.768 248.768C84.5573 248.768 85.1973 249.003 85.688 249.472C86.1787 249.941 86.424 250.608 86.424 251.472C86.424 252.336 86.1787 253.003 85.688 253.472C85.1973 253.941 84.5573 254.176 83.768 254.176C82.9787 254.176 82.3387 253.941 81.848 253.472C81.3573 253.003 81.112 252.336 81.112 251.472ZM83.752 250.368C83.5067 250.368 83.3147 250.459 83.176 250.64C83.048 250.821 82.984 251.099 82.984 251.472C82.984 252.197 83.24 252.56 83.752 252.56C83.9973 252.56 84.1893 252.469 84.328 252.288C84.4667 252.107 84.536 251.835 84.536 251.472C84.536 251.109 84.4667 250.837 84.328 250.656C84.1893 250.464 83.9973 250.368 83.752 250.368ZM98.2965 252.016H94.1045L93.4325 254H90.5685L94.6325 242.768H97.8005L101.865 254H98.9685L98.2965 252.016ZM97.5925 249.904L96.2005 245.792L94.8245 249.904H97.5925ZM105.837 251.888H109.421V254H103.101V242.768H105.837V251.888ZM113.462 251.888H117.046V254H110.726V242.768H113.462V251.888ZM123.663 254.112C122.607 254.112 121.637 253.867 120.751 253.376C119.877 252.885 119.178 252.203 118.655 251.328C118.143 250.443 117.887 249.451 117.887 248.352C117.887 247.253 118.143 246.267 118.655 245.392C119.178 244.517 119.877 243.835 120.751 243.344C121.637 242.853 122.607 242.608 123.663 242.608C124.719 242.608 125.685 242.853 126.559 243.344C127.445 243.835 128.138 244.517 128.639 245.392C129.151 246.267 129.407 247.253 129.407 248.352C129.407 249.451 129.151 250.443 128.639 251.328C128.127 252.203 127.434 252.885 126.559 253.376C125.685 253.867 124.719 254.112 123.663 254.112ZM123.663 251.616C124.559 251.616 125.274 251.317 125.807 250.72C126.351 250.123 126.623 249.333 126.623 248.352C126.623 247.36 126.351 246.571 125.807 245.984C125.274 245.387 124.559 245.088 123.663 245.088C122.757 245.088 122.031 245.381 121.487 245.968C120.954 246.555 120.687 247.349 120.687 248.352C120.687 249.344 120.954 250.139 121.487 250.736C122.031 251.323 122.757 251.616 123.663 251.616ZM130.465 248.368C130.465 247.259 130.706 246.272 131.186 245.408C131.666 244.533 132.332 243.856 133.186 243.376C134.05 242.885 135.026 242.64 136.114 242.64C137.447 242.64 138.588 242.992 139.538 243.696C140.487 244.4 141.122 245.36 141.442 246.576H138.434C138.21 246.107 137.89 245.749 137.474 245.504C137.068 245.259 136.604 245.136 136.082 245.136C135.239 245.136 134.556 245.429 134.034 246.016C133.511 246.603 133.25 247.387 133.25 248.368C133.25 249.349 133.511 250.133 134.034 250.72C134.556 251.307 135.239 251.6 136.082 251.6C136.604 251.6 137.068 251.477 137.474 251.232C137.89 250.987 138.21 250.629 138.434 250.16H141.442C141.122 251.376 140.487 252.336 139.538 253.04C138.588 253.733 137.447 254.08 136.114 254.08C135.026 254.08 134.05 253.84 133.186 253.36C132.332 252.869 131.666 252.192 131.186 251.328C130.706 250.464 130.465 249.477 130.465 248.368ZM150.109 252.016H145.917L145.245 254H142.381L146.445 242.768H149.613L153.677 254H150.781L150.109 252.016ZM149.405 249.904L148.013 245.792L146.637 249.904H149.405ZM162.994 242.768V244.96H160.018V254H157.282V244.96H154.306V242.768H162.994ZM167.103 244.96V247.232H170.767V249.344H167.103V251.808H171.247V254H164.367V242.768H171.247V244.96H167.103ZM177.231 242.768C178.415 242.768 179.45 243.003 180.335 243.472C181.221 243.941 181.903 244.603 182.383 245.456C182.874 246.299 183.119 247.275 183.119 248.384C183.119 249.483 182.874 250.459 182.383 251.312C181.903 252.165 181.215 252.827 180.319 253.296C179.434 253.765 178.405 254 177.231 254H173.023V242.768H177.231ZM177.055 251.632C178.09 251.632 178.895 251.349 179.471 250.784C180.047 250.219 180.335 249.419 180.335 248.384C180.335 247.349 180.047 246.544 179.471 245.968C178.895 245.392 178.09 245.104 177.055 245.104H175.759V251.632H177.055Z" fill="white"/>
<path d="M76.728 400.96V403.232H80.392V405.344H76.728V407.808H80.872V410H73.992V398.768H80.872V400.96H76.728ZM92.6963 410H89.9603L85.3843 403.072V410H82.6483V398.768H85.3843L89.9603 405.728V398.768H92.6963V410ZM98.8875 398.768C100.072 398.768 101.106 399.003 101.992 399.472C102.877 399.941 103.56 400.603 104.04 401.456C104.53 402.299 104.776 403.275 104.776 404.384C104.776 405.483 104.53 406.459 104.04 407.312C103.56 408.165 102.872 408.827 101.976 409.296C101.09 409.765 100.061 410 98.8875 410H94.6795V398.768H98.8875ZM98.7115 407.632C99.7462 407.632 100.552 407.349 101.128 406.784C101.704 406.219 101.992 405.419 101.992 404.384C101.992 403.349 101.704 402.544 101.128 401.968C100.552 401.392 99.7462 401.104 98.7115 401.104H97.4155V407.632H98.7115ZM113.903 398.768C115.087 398.768 116.122 399.003 117.007 399.472C117.892 399.941 118.575 400.603 119.055 401.456C119.546 402.299 119.791 403.275 119.791 404.384C119.791 405.483 119.546 406.459 119.055 407.312C118.575 408.165 117.887 408.827 116.991 409.296C116.106 409.765 115.076 410 113.903 410H109.695V398.768H113.903ZM113.727 407.632C114.762 407.632 115.567 407.349 116.143 406.784C116.719 406.219 117.007 405.419 117.007 404.384C117.007 403.349 116.719 402.544 116.143 401.968C115.567 401.392 114.762 401.104 113.727 401.104H112.431V407.632H113.727ZM128.312 408.016H124.12L123.448 410H120.584L124.648 398.768H127.816L131.88 410H128.984L128.312 408.016ZM127.608 405.904L126.216 401.792L124.84 405.904H127.608ZM141.197 398.768V400.96H138.221V410H135.485V400.96H132.509V398.768H141.197ZM145.306 400.96V403.232H148.97V405.344H145.306V407.808H149.45V410H142.57V398.768H149.45V400.96H145.306Z" fill="white"/>
<path d="M89.448 476.768L86.52 488H83.208L81.416 480.608L79.56 488H76.248L73.4 476.768H76.328L77.944 484.944L79.944 476.768H82.952L84.872 484.944L86.504 476.768H89.448ZM93.5561 478.96V481.232H97.2201V483.344H93.5561V485.808H97.7001V488H90.8201V476.768H97.7001V478.96H93.5561ZM102.212 478.96V481.232H105.876V483.344H102.212V485.808H106.356V488H99.4764V476.768H106.356V478.96H102.212ZM114.645 488L110.869 483.04V488H108.133V476.768H110.869V481.696L114.613 476.768H117.829L113.477 482.272L117.989 488H114.645ZM123.353 488.112C122.532 488.112 121.796 487.979 121.145 487.712C120.494 487.445 119.972 487.051 119.577 486.528C119.193 486.005 118.99 485.376 118.969 484.64H121.881C121.924 485.056 122.068 485.376 122.313 485.6C122.558 485.813 122.878 485.92 123.273 485.92C123.678 485.92 123.998 485.829 124.233 485.648C124.468 485.456 124.585 485.195 124.585 484.864C124.585 484.587 124.489 484.357 124.297 484.176C124.116 483.995 123.886 483.845 123.609 483.728C123.342 483.611 122.958 483.477 122.457 483.328C121.732 483.104 121.14 482.88 120.681 482.656C120.222 482.432 119.828 482.101 119.497 481.664C119.166 481.227 119.001 480.656 119.001 479.952C119.001 478.907 119.38 478.091 120.137 477.504C120.894 476.907 121.881 476.608 123.097 476.608C124.334 476.608 125.332 476.907 126.089 477.504C126.846 478.091 127.252 478.912 127.305 479.968H124.345C124.324 479.605 124.19 479.323 123.945 479.12C123.7 478.907 123.385 478.8 123.001 478.8C122.67 478.8 122.404 478.891 122.201 479.072C121.998 479.243 121.897 479.493 121.897 479.824C121.897 480.187 122.068 480.469 122.409 480.672C122.75 480.875 123.284 481.093 124.009 481.328C124.734 481.573 125.321 481.808 125.769 482.032C126.228 482.256 126.622 482.581 126.953 483.008C127.284 483.435 127.449 483.984 127.449 484.656C127.449 485.296 127.284 485.877 126.953 486.4C126.633 486.923 126.164 487.339 125.545 487.648C124.926 487.957 124.196 488.112 123.353 488.112Z" fill="white"/>
<path d="M882.322 103.112C881.5 103.112 880.764 102.979 880.114 102.712C879.463 102.445 878.94 102.051 878.546 101.528C878.162 101.005 877.959 100.376 877.938 99.64H880.85C880.892 100.056 881.036 100.376 881.282 100.6C881.527 100.813 881.847 100.92 882.242 100.92C882.647 100.92 882.967 100.829 883.202 100.648C883.436 100.456 883.554 100.195 883.554 99.864C883.554 99.5867 883.458 99.3573 883.266 99.176C883.084 98.9947 882.855 98.8453 882.578 98.728C882.311 98.6107 881.927 98.4773 881.426 98.328C880.7 98.104 880.108 97.88 879.65 97.656C879.191 97.432 878.796 97.1013 878.466 96.664C878.135 96.2267 877.97 95.656 877.97 94.952C877.97 93.9067 878.348 93.0907 879.106 92.504C879.863 91.9067 880.85 91.608 882.066 91.608C883.303 91.608 884.3 91.9067 885.058 92.504C885.815 93.0907 886.22 93.912 886.274 94.968H883.314C883.292 94.6053 883.159 94.3227 882.914 94.12C882.668 93.9067 882.354 93.8 881.97 93.8C881.639 93.8 881.372 93.8907 881.17 94.072C880.967 94.2427 880.866 94.4933 880.866 94.824C880.866 95.1867 881.036 95.4693 881.378 95.672C881.719 95.8747 882.252 96.0933 882.978 96.328C883.703 96.5733 884.29 96.808 884.738 97.032C885.196 97.256 885.591 97.5813 885.922 98.008C886.252 98.4347 886.418 98.984 886.418 99.656C886.418 100.296 886.252 100.877 885.922 101.4C885.602 101.923 885.132 102.339 884.514 102.648C883.895 102.957 883.164 103.112 882.322 103.112ZM896.181 91.768V93.96H893.205V103H890.469V93.96H887.493V91.768H896.181ZM904.547 101.016H900.355L899.683 103H896.819L900.883 91.768H904.051L908.115 103H905.219L904.547 101.016ZM903.843 98.904L902.451 94.792L901.075 98.904H903.843ZM916.807 95.32C916.605 94.9467 916.311 94.664 915.927 94.472C915.554 94.2693 915.111 94.168 914.599 94.168C913.714 94.168 913.005 94.4613 912.471 95.048C911.938 95.624 911.671 96.3973 911.671 97.368C911.671 98.4027 911.949 99.2133 912.503 99.8C913.069 100.376 913.842 100.664 914.823 100.664C915.495 100.664 916.061 100.493 916.519 100.152C916.989 99.8107 917.33 99.32 917.543 98.68H914.071V96.664H920.023V99.208C919.821 99.8907 919.474 100.525 918.983 101.112C918.503 101.699 917.89 102.173 917.143 102.536C916.397 102.899 915.554 103.08 914.615 103.08C913.506 103.08 912.514 102.84 911.639 102.36C910.775 101.869 910.098 101.192 909.607 100.328C909.127 99.464 908.887 98.4773 908.887 97.368C908.887 96.2587 909.127 95.272 909.607 94.408C910.098 93.5333 910.775 92.856 911.639 92.376C912.503 91.8853 913.49 91.64 914.599 91.64C915.943 91.64 917.074 91.9653 917.991 92.616C918.919 93.2667 919.533 94.168 919.831 95.32H916.807ZM924.275 93.96V96.232H927.939V98.344H924.275V100.808H928.419V103H921.539V91.768H928.419V93.96H924.275ZM933.218 100.808C933.58 100.52 933.746 100.387 933.714 100.408C934.759 99.544 935.58 98.8347 936.178 98.28C936.786 97.7253 937.298 97.144 937.714 96.536C938.13 95.928 938.338 95.336 938.338 94.76C938.338 94.3227 938.236 93.9813 938.034 93.736C937.831 93.4907 937.527 93.368 937.122 93.368C936.716 93.368 936.396 93.5227 936.162 93.832C935.938 94.1307 935.826 94.5573 935.826 95.112H933.186C933.207 94.2053 933.399 93.448 933.762 92.84C934.135 92.232 934.62 91.784 935.218 91.496C935.826 91.208 936.498 91.064 937.234 91.064C938.503 91.064 939.458 91.3893 940.098 92.04C940.748 92.6907 941.074 93.5387 941.074 94.584C941.074 95.7253 940.684 96.7867 939.906 97.768C939.127 98.7387 938.135 99.688 936.93 100.616H941.25V102.84H933.218V100.808Z" fill="white"/>
<path d="M1245.55 103.112C1244.73 103.112 1243.99 102.979 1243.34 102.712C1242.69 102.445 1242.17 102.051 1241.77 101.528C1241.39 101.005 1241.19 100.376 1241.16 99.64H1244.08C1244.12 100.056 1244.26 100.376 1244.51 100.6C1244.75 100.813 1245.07 100.92 1245.47 100.92C1245.87 100.92 1246.19 100.829 1246.43 100.648C1246.66 100.456 1246.78 100.195 1246.78 99.864C1246.78 99.5867 1246.68 99.3573 1246.49 99.176C1246.31 98.9947 1246.08 98.8453 1245.8 98.728C1245.54 98.6107 1245.15 98.4773 1244.65 98.328C1243.93 98.104 1243.33 97.88 1242.88 97.656C1242.42 97.432 1242.02 97.1013 1241.69 96.664C1241.36 96.2267 1241.2 95.656 1241.2 94.952C1241.2 93.9067 1241.57 93.0907 1242.33 92.504C1243.09 91.9067 1244.08 91.608 1245.29 91.608C1246.53 91.608 1247.53 91.9067 1248.28 92.504C1249.04 93.0907 1249.45 93.912 1249.5 94.968H1246.54C1246.52 94.6053 1246.39 94.3227 1246.14 94.12C1245.89 93.9067 1245.58 93.8 1245.2 93.8C1244.87 93.8 1244.6 93.8907 1244.4 94.072C1244.19 94.2427 1244.09 94.4933 1244.09 94.824C1244.09 95.1867 1244.26 95.4693 1244.6 95.672C1244.95 95.8747 1245.48 96.0933 1246.2 96.328C1246.93 96.5733 1247.52 96.808 1247.96 97.032C1248.42 97.256 1248.82 97.5813 1249.15 98.008C1249.48 98.4347 1249.64 98.984 1249.64 99.656C1249.64 100.296 1249.48 100.877 1249.15 101.4C1248.83 101.923 1248.36 102.339 1247.74 102.648C1247.12 102.957 1246.39 103.112 1245.55 103.112ZM1259.41 91.768V93.96H1256.43V103H1253.7V93.96H1250.72V91.768H1259.41ZM1267.77 101.016H1263.58L1262.91 103H1260.05L1264.11 91.768H1267.28L1271.34 103H1268.45L1267.77 101.016ZM1267.07 98.904L1265.68 94.792L1264.3 98.904H1267.07ZM1280.03 95.32C1279.83 94.9467 1279.54 94.664 1279.15 94.472C1278.78 94.2693 1278.34 94.168 1277.83 94.168C1276.94 94.168 1276.23 94.4613 1275.7 95.048C1275.16 95.624 1274.9 96.3973 1274.9 97.368C1274.9 98.4027 1275.18 99.2133 1275.73 99.8C1276.3 100.376 1277.07 100.664 1278.05 100.664C1278.72 100.664 1279.29 100.493 1279.75 100.152C1280.22 99.8107 1280.56 99.32 1280.77 98.68H1277.3V96.664H1283.25V99.208C1283.05 99.8907 1282.7 100.525 1282.21 101.112C1281.73 101.699 1281.12 102.173 1280.37 102.536C1279.62 102.899 1278.78 103.08 1277.84 103.08C1276.73 103.08 1275.74 102.84 1274.87 102.36C1274 101.869 1273.32 101.192 1272.83 100.328C1272.35 99.464 1272.11 98.4773 1272.11 97.368C1272.11 96.2587 1272.35 95.272 1272.83 94.408C1273.32 93.5333 1274 92.856 1274.87 92.376C1275.73 91.8853 1276.72 91.64 1277.83 91.64C1279.17 91.64 1280.3 91.9653 1281.22 92.616C1282.15 93.2667 1282.76 94.168 1283.06 95.32H1280.03ZM1287.5 93.96V96.232H1291.17V98.344H1287.5V100.808H1291.65V103H1284.77V91.768H1291.65V93.96H1287.5ZM1296.64 94.616C1296.68 93.4747 1297.05 92.5947 1297.76 91.976C1298.46 91.3573 1299.41 91.048 1300.62 91.048C1301.42 91.048 1302.1 91.1867 1302.67 91.464C1303.24 91.7413 1303.68 92.12 1303.96 92.6C1304.26 93.08 1304.41 93.6187 1304.41 94.216C1304.41 94.92 1304.24 95.496 1303.88 95.944C1303.53 96.3813 1303.12 96.68 1302.65 96.84V96.904C1303.26 97.1067 1303.74 97.4427 1304.09 97.912C1304.44 98.3813 1304.62 98.984 1304.62 99.72C1304.62 100.381 1304.47 100.968 1304.16 101.48C1303.86 101.981 1303.41 102.376 1302.83 102.664C1302.25 102.952 1301.56 103.096 1300.76 103.096C1299.48 103.096 1298.46 102.781 1297.69 102.152C1296.93 101.523 1296.53 100.573 1296.49 99.304H1299.15C1299.16 99.7733 1299.29 100.147 1299.55 100.424C1299.8 100.691 1300.18 100.824 1300.67 100.824C1301.08 100.824 1301.4 100.707 1301.63 100.472C1301.86 100.227 1301.98 99.9067 1301.98 99.512C1301.98 99 1301.81 98.632 1301.48 98.408C1301.16 98.1733 1300.65 98.056 1299.93 98.056H1299.42V95.832H1299.93C1300.48 95.832 1300.91 95.7413 1301.24 95.56C1301.59 95.368 1301.76 95.032 1301.76 94.552C1301.76 94.168 1301.65 93.8693 1301.44 93.656C1301.22 93.4427 1300.93 93.336 1300.56 93.336C1300.15 93.336 1299.85 93.4587 1299.64 93.704C1299.45 93.9493 1299.34 94.2533 1299.31 94.616H1296.64Z" fill="white"/>
<line x1="1" y1="208.5" x2="1437" y2="208.5" stroke="white" stroke-opacity="0.2"/>
<line x1="1" y1="130.5" x2="1437" y2="130.5" stroke="white" stroke-opacity="0.2"/>
<line x1="1" y1="286.5" x2="1437" y2="286.5" stroke="white" stroke-opacity="0.2"/>
<line x1="1" y1="364.5" x2="1437" y2="364.5" stroke="white" stroke-opacity="0.2"/>
<line x1="1" y1="442.5" x2="1437" y2="442.5" stroke="white" stroke-opacity="0.2"/>
<defs>
<filter id="filter0_b_201_332" x="-80" y="-80" width="1600" height="691" filterUnits="userSpaceOnUse" color-interpolation-filters="sRGB">
<feFlood flood-opacity="0" result="BackgroundImageFix"/>
<feGaussianBlur in="BackgroundImage" stdDeviation="40"/>
<feComposite in2="SourceAlpha" operator="in" result="effect1_backgroundBlur_201_332"/>
<feBlend mode="normal" in="SourceGraphic" in2="effect1_backgroundBlur_201_332" result="shape"/>
</filter>
<linearGradient id="paint0_linear_201_332" x1="547" y1="155" x2="547" y2="185" gradientUnits="userSpaceOnUse">
<stop stop-color="#6FBF86"/>
<stop offset="1" stop-color="#34B1A6"/>
</linearGradient>
<linearGradient id="paint1_linear_201_332" x1="546.5" y1="233" x2="546.5" y2="263" gradientUnits="userSpaceOnUse">
<stop stop-color="#6FBF86"/>
<stop offset="1" stop-color="#34B1A6"/>
</linearGradient>
<linearGradient id="paint2_linear_201_332" x1="547" y1="311" x2="547" y2="341" gradientUnits="userSpaceOnUse">
<stop stop-color="#6FBF86"/>
<stop offset="1" stop-color="#34B1A6"/>
</linearGradient>
<linearGradient id="paint3_linear_201_332" x1="547" y1="389" x2="547" y2="419" gradientUnits="userSpaceOnUse">
<stop stop-color="#6FBF86"/>
<stop offset="1" stop-color="#34B1A6"/>
</linearGradient>
<linearGradient id="paint4_linear_201_332" x1="547" y1="467" x2="547" y2="497" gradientUnits="userSpaceOnUse">
<stop stop-color="#6FBF86"/>
<stop offset="1" stop-color="#34B1A6"/>
</linearGradient>
<linearGradient id="paint5_linear_201_332" x1="909.5" y1="155" x2="909.5" y2="185" gradientUnits="userSpaceOnUse">
<stop stop-color="#6FBF86"/>
<stop offset="1" stop-color="#34B1A6"/>
</linearGradient>
<linearGradient id="paint6_linear_201_332" x1="909" y1="233" x2="909" y2="263" gradientUnits="userSpaceOnUse">
<stop stop-color="#6FBF86"/>
<stop offset="1" stop-color="#34B1A6"/>
</linearGradient>
<linearGradient id="paint7_linear_201_332" x1="909" y1="311" x2="909" y2="341" gradientUnits="userSpaceOnUse">
<stop stop-color="#6FBF86"/>
<stop offset="1" stop-color="#34B1A6"/>
</linearGradient>
<linearGradient id="paint8_linear_201_332" x1="909" y1="389" x2="909" y2="419" gradientUnits="userSpaceOnUse">
<stop stop-color="#6FBF86"/>
<stop offset="1" stop-color="#34B1A6"/>
</linearGradient>
<linearGradient id="paint9_linear_201_332" x1="909" y1="467" x2="909" y2="497" gradientUnits="userSpaceOnUse">
<stop stop-color="#6FBF86"/>
<stop offset="1" stop-color="#34B1A6"/>
</linearGradient>
<linearGradient id="paint10_linear_201_332" x1="1273.5" y1="155" x2="1273.5" y2="185" gradientUnits="userSpaceOnUse">
<stop stop-color="#6FBF86"/>
<stop offset="1" stop-color="#34B1A6"/>
</linearGradient>
<linearGradient id="paint11_linear_201_332" x1="1273" y1="233" x2="1273" y2="263" gradientUnits="userSpaceOnUse">
<stop stop-color="#6FBF86"/>
<stop offset="1" stop-color="#34B1A6"/>
</linearGradient>
<linearGradient id="paint12_linear_201_332" x1="1273" y1="311" x2="1273" y2="341" gradientUnits="userSpaceOnUse">
<stop stop-color="#6FBF86"/>
<stop offset="1" stop-color="#34B1A6"/>
</linearGradient>
<linearGradient id="paint13_linear_201_332" x1="1273" y1="389" x2="1273" y2="419" gradientUnits="userSpaceOnUse">
<stop stop-color="#6FBF86"/>
<stop offset="1" stop-color="#34B1A6"/>
</linearGradient>
<linearGradient id="paint14_linear_201_332" x1="1273" y1="467" x2="1273" y2="497" gradientUnits="userSpaceOnUse">
<stop stop-color="#6FBF86"/>
<stop offset="1" stop-color="#34B1A6"/>
</linearGradient>
</defs>
</svg>
