<svg width="448" height="939" viewBox="0 0 448 939" fill="none" xmlns="http://www.w3.org/2000/svg">
<g filter="url(#filter0_dd_40_998)">
<path d="M155.413 297.092C153.279 298.324 151.367 299.028 149.677 299.204C147.986 299.38 146.628 298.98 145.603 298.004C144.605 297.012 144.079 295.428 144.023 293.252L151.589 288.884C151.7 290.068 152.074 290.812 152.711 291.116C153.349 291.388 154.18 291.228 155.205 290.636C156.259 290.028 157.09 289.276 157.7 288.38C158.309 287.452 158.614 286.492 158.614 285.5C158.614 284.668 158.365 284.124 157.866 283.868C157.395 283.596 156.799 283.492 156.078 283.556C155.386 283.604 154.388 283.78 153.085 284.084C151.201 284.5 149.663 284.716 148.471 284.732C147.28 284.748 146.254 284.348 145.395 283.532C144.536 282.716 144.106 281.252 144.106 279.14C144.106 276.004 145.09 272.988 147.058 270.092C149.025 267.164 151.589 264.788 154.748 262.964C157.963 261.108 160.554 260.508 162.522 261.164C164.489 261.788 165.542 263.644 165.681 266.732L157.991 271.172C157.935 270.116 157.589 269.468 156.951 269.228C156.314 268.956 155.496 269.108 154.499 269.684C153.64 270.18 152.947 270.852 152.42 271.7C151.894 272.516 151.63 273.42 151.63 274.412C151.63 275.5 152.074 276.092 152.961 276.188C153.847 276.284 155.233 276.14 157.118 275.756C159.002 275.404 160.526 275.228 161.69 275.228C162.882 275.212 163.907 275.596 164.766 276.38C165.625 277.164 166.055 278.564 166.055 280.58C166.055 282.5 165.625 284.492 164.766 286.556C163.935 288.604 162.716 290.556 161.108 292.412C159.501 294.268 157.603 295.828 155.413 297.092ZM183.358 273.662V280.622L179.741 282.71C177.164 284.198 175.155 284.638 173.713 284.03C172.272 283.39 171.552 281.422 171.552 278.126V267.47L168.725 269.102V262.286L171.552 260.654V254.126L178.66 250.022V256.55L183.316 253.862V260.678L178.66 263.366V274.118C178.66 274.918 178.826 275.398 179.159 275.558C179.492 275.718 180.046 275.574 180.822 275.126L183.358 273.662ZM185.904 265.712C185.904 262.96 186.347 260.288 187.234 257.696C188.148 255.088 189.382 252.776 190.934 250.76C192.485 248.744 194.217 247.184 196.13 246.08C197.765 245.136 199.192 244.696 200.411 244.76C201.658 244.808 202.614 245.264 203.28 246.128V242.336L210.388 238.232V265.016L203.28 269.12V265.328C202.587 266.976 201.617 268.544 200.37 270.032C199.15 271.504 197.723 272.712 196.088 273.656C194.204 274.744 192.485 275.176 190.934 274.952C189.382 274.696 188.148 273.792 187.234 272.24C186.347 270.64 185.904 268.464 185.904 265.712ZM203.28 255.728C203.28 253.68 202.781 252.352 201.783 251.744C200.813 251.12 199.621 251.216 198.208 252.032C196.795 252.848 195.589 254.136 194.592 255.896C193.622 257.608 193.137 259.488 193.137 261.536C193.137 263.584 193.622 264.936 194.592 265.592C195.589 266.2 196.795 266.096 198.208 265.28C199.621 264.464 200.813 263.184 201.783 261.44C202.781 259.68 203.28 257.776 203.28 255.728ZM229.706 253.863L222.639 246.711V257.943L215.53 262.047V226.527L222.639 222.423V242.055L229.664 227.103L238.435 222.039L228.791 241.047L238.518 248.775L229.706 253.863ZM244.802 215.579C243.555 216.299 242.53 216.475 241.726 216.107C240.95 215.691 240.562 214.859 240.562 213.611C240.562 212.331 240.95 211.051 241.726 209.771C242.53 208.443 243.555 207.419 244.802 206.699C246.021 205.995 247.019 205.851 247.795 206.267C248.599 206.635 249.001 207.459 249.001 208.739C249.001 209.987 248.599 211.275 247.795 212.603C247.019 213.883 246.021 214.875 244.802 215.579ZM248.335 216.323V243.107L241.227 247.211V220.427L248.335 216.323ZM267.62 204.901C270.336 203.333 272.498 203.109 274.105 204.229C275.74 205.301 276.558 207.613 276.558 211.165V226.813L269.491 230.893V216.349C269.491 214.557 269.089 213.397 268.285 212.869C267.482 212.341 266.401 212.469 265.043 213.253C263.685 214.037 262.604 215.157 261.801 216.613C260.997 218.069 260.595 219.693 260.595 221.485V236.029L253.487 240.133V213.349L260.595 209.245V212.797C261.316 211.197 262.286 209.709 263.505 208.333C264.724 206.925 266.096 205.781 267.62 204.901ZM290.31 191.705C291.945 190.761 293.372 190.321 294.592 190.385C295.839 190.433 296.795 190.889 297.46 191.753V187.961L304.568 183.857V210.593C304.568 213.057 304.139 215.529 303.28 218.009C302.448 220.505 301.16 222.849 299.414 225.041C297.695 227.217 295.548 229.049 292.97 230.537C289.534 232.521 286.749 233.185 284.615 232.529C282.481 231.905 281.262 230.081 280.957 227.057L287.982 223.001C288.204 223.897 288.73 224.393 289.562 224.489C290.393 224.617 291.418 224.329 292.638 223.625C294.107 222.777 295.271 221.609 296.13 220.121C297.016 218.649 297.46 216.841 297.46 214.697V210.905C296.767 212.553 295.811 214.129 294.592 215.633C293.372 217.105 291.945 218.313 290.31 219.257C288.398 220.361 286.666 220.801 285.114 220.577C283.562 220.321 282.329 219.417 281.414 217.865C280.527 216.265 280.084 214.089 280.084 211.337C280.084 208.585 280.527 205.913 281.414 203.321C282.329 200.713 283.562 198.401 285.114 196.385C286.666 194.369 288.398 192.809 290.31 191.705ZM297.46 201.353C297.46 199.305 296.961 197.977 295.963 197.369C294.993 196.745 293.802 196.841 292.388 197.657C290.975 198.473 289.77 199.761 288.772 201.521C287.802 203.233 287.317 205.113 287.317 207.161C287.317 209.209 287.802 210.561 288.772 211.217C289.77 211.825 290.975 211.721 292.388 210.905C293.802 210.089 294.993 208.809 295.963 207.065C296.961 205.305 297.46 203.401 297.46 201.353Z" fill="#6FBF86"/>
</g>
<path d="M0 515H448V939H0V515Z" fill="url(#paint0_linear_40_998)"/>
<path d="M0 515H448V939H0V515Z" fill="url(#paint1_linear_40_998)"/>
<path d="M0 515H448V939H0V515Z" fill="url(#paint2_linear_40_998)"/>
<path d="M0 515H448V939H0V515Z" fill="url(#paint3_linear_40_998)"/>
<path d="M435.444 529.931L254.311 620.514C237.573 628.887 210.427 628.887 193.681 620.514L12.5554 529.931C-4.18254 521.558 -4.18254 507.981 12.5554 499.608L193.681 409.025C210.419 400.652 237.565 400.652 254.311 409.025L435.444 499.608C452.182 507.981 452.182 521.558 435.444 529.931Z" fill="#202936"/>
<path d="M55.1846 472.076V499.801C55.1846 521.486 71.7295 543.17 104.811 559.715C170.975 592.805 278.256 592.805 344.419 559.715C377.501 543.17 394.046 521.486 394.046 499.801V472.076H55.1846Z" fill="url(#paint4_linear_40_998)"/>
<path d="M224.615 556.811C318.189 556.811 394.046 518.874 394.046 472.076C394.046 425.278 318.189 387.341 224.615 387.341C131.041 387.341 55.1846 425.278 55.1846 472.076C55.1846 518.874 131.041 556.811 224.615 556.811Z" fill="url(#paint5_linear_40_998)"/>
<path opacity="0.0476" d="M207.612 535.915C280.086 535.915 338.837 506.534 338.837 470.29C338.837 434.047 280.086 404.666 207.612 404.666C135.138 404.666 76.3867 434.047 76.3867 470.29C76.3867 506.534 135.138 535.915 207.612 535.915Z" fill="#152118"/>
<path opacity="0.0952" d="M208.457 535.489C280.93 535.489 339.682 506.108 339.682 469.864C339.682 433.621 280.93 404.24 208.457 404.24C135.983 404.24 77.2312 433.621 77.2312 469.864C77.2312 506.108 135.983 535.489 208.457 535.489Z" fill="#152118"/>
<path opacity="0.1429" d="M209.293 535.071C281.767 535.071 340.518 505.689 340.518 469.446C340.518 433.202 281.767 403.821 209.293 403.821C136.819 403.821 78.0677 433.202 78.0677 469.446C78.0677 505.689 136.819 535.071 209.293 535.071Z" fill="#152118"/>
<path opacity="0.1905" d="M210.138 534.652C282.611 534.652 341.363 505.271 341.363 469.028C341.363 432.784 282.611 403.403 210.138 403.403C137.664 403.403 78.9122 432.784 78.9122 469.028C78.9122 505.271 137.664 534.652 210.138 534.652Z" fill="#152118"/>
<path opacity="0.2381" d="M210.974 534.234C283.448 534.234 342.199 504.853 342.199 468.609C342.199 432.366 283.448 402.985 210.974 402.985C138.5 402.985 79.7487 432.366 79.7487 468.609C79.7487 504.853 138.5 534.234 210.974 534.234Z" fill="#152118"/>
<path opacity="0.2857" d="M211.819 533.808C284.292 533.808 343.044 504.427 343.044 468.183C343.044 431.94 284.292 402.558 211.819 402.558C139.345 402.558 80.5933 431.94 80.5933 468.183C80.5933 504.427 139.345 533.808 211.819 533.808Z" fill="#152118"/>
<path opacity="0.3333" d="M212.655 533.39C285.129 533.39 343.88 504.008 343.88 467.765C343.88 431.521 285.129 402.14 212.655 402.14C140.181 402.14 81.4298 431.521 81.4298 467.765C81.4298 504.008 140.181 533.39 212.655 533.39Z" fill="#152118"/>
<path opacity="0.381" d="M213.5 532.971C285.973 532.971 344.725 503.59 344.725 467.347C344.725 431.103 285.973 401.722 213.5 401.722C141.026 401.722 82.2743 431.103 82.2743 467.347C82.2743 503.59 141.026 532.971 213.5 532.971Z" fill="#152118"/>
<path opacity="0.4286" d="M214.344 532.545C286.818 532.545 345.57 503.164 345.57 466.92C345.57 430.677 286.818 401.295 214.344 401.295C141.87 401.295 83.1189 430.677 83.1189 466.92C83.1189 503.164 141.87 532.545 214.344 532.545Z" fill="#152118"/>
<path opacity="0.4762" d="M215.181 532.127C287.655 532.127 346.406 502.746 346.406 466.502C346.406 430.258 287.655 400.877 215.181 400.877C142.707 400.877 83.9554 430.258 83.9554 466.502C83.9554 502.746 142.707 532.127 215.181 532.127Z" fill="#152118"/>
<path opacity="0.5238" d="M216.025 531.708C288.499 531.708 347.251 502.327 347.251 466.084C347.251 429.84 288.499 400.459 216.025 400.459C143.552 400.459 84.7999 429.84 84.7999 466.084C84.7999 502.327 143.552 531.708 216.025 531.708Z" fill="#152118"/>
<path opacity="0.5714" d="M216.862 531.29C289.336 531.29 348.087 501.909 348.087 465.666C348.087 429.422 289.336 400.041 216.862 400.041C144.388 400.041 85.6365 429.422 85.6365 465.666C85.6365 501.909 144.388 531.29 216.862 531.29Z" fill="#152118"/>
<path opacity="0.619" d="M217.706 530.864C290.18 530.864 348.932 501.483 348.932 465.239C348.932 428.996 290.18 399.615 217.706 399.615C145.233 399.615 86.481 428.996 86.481 465.239C86.481 501.483 145.233 530.864 217.706 530.864Z" fill="#152118"/>
<path opacity="0.6667" d="M218.543 530.446C291.016 530.446 349.768 501.065 349.768 464.821C349.768 428.578 291.016 399.196 218.543 399.196C146.069 399.196 87.3174 428.578 87.3174 464.821C87.3174 501.065 146.069 530.446 218.543 530.446Z" fill="#152118"/>
<path opacity="0.7143" d="M219.387 530.028C291.861 530.028 350.613 500.646 350.613 464.403C350.613 428.159 291.861 398.778 219.387 398.778C146.914 398.778 88.162 428.159 88.162 464.403C88.162 500.646 146.914 530.028 219.387 530.028Z" fill="#152118"/>
<path opacity="0.7619" d="M220.224 529.601C292.697 529.601 351.449 500.22 351.449 463.977C351.449 427.733 292.697 398.352 220.224 398.352C147.75 398.352 88.9984 427.733 88.9984 463.977C88.9984 500.22 147.75 529.601 220.224 529.601Z" fill="#152118"/>
<path opacity="0.8095" d="M221.068 529.183C293.542 529.183 352.294 499.802 352.294 463.558C352.294 427.315 293.542 397.933 221.068 397.933C148.595 397.933 89.843 427.315 89.843 463.558C89.843 499.802 148.595 529.183 221.068 529.183Z" fill="#152118"/>
<path opacity="0.8571" d="M221.905 528.765C294.379 528.765 353.13 499.383 353.13 463.14C353.13 426.896 294.379 397.515 221.905 397.515C149.431 397.515 90.6796 426.896 90.6796 463.14C90.6796 499.383 149.431 528.765 221.905 528.765Z" fill="#152118"/>
<path opacity="0.9048" d="M222.749 528.346C295.223 528.346 353.975 498.965 353.975 462.722C353.975 426.478 295.223 397.097 222.749 397.097C150.276 397.097 91.524 426.478 91.524 462.722C91.524 498.965 150.276 528.346 222.749 528.346Z" fill="#152118"/>
<path opacity="0.9524" d="M223.594 527.92C296.068 527.92 354.819 498.539 354.819 462.295C354.819 426.052 296.068 396.671 223.594 396.671C151.12 396.671 92.3687 426.052 92.3687 462.295C92.3687 498.539 151.12 527.92 223.594 527.92Z" fill="#152118"/>
<path d="M224.43 527.502C296.904 527.502 355.656 498.121 355.656 461.877C355.656 425.634 296.904 396.252 224.43 396.252C151.957 396.252 93.2051 425.634 93.2051 461.877C93.2051 498.121 151.957 527.502 224.43 527.502Z" fill="#152118"/>
<path d="M224.615 499.616C296.987 499.616 355.656 470.274 355.656 434.08C355.656 397.885 296.987 368.543 224.615 368.543C152.244 368.543 93.5751 397.885 93.5751 434.08C93.5751 470.274 152.244 499.616 224.615 499.616Z" fill="url(#paint6_linear_40_998)"/>
<path d="M317.273 480.417C266.102 506.01 183.128 506.01 131.957 480.417C106.372 467.62 93.5751 450.85 93.5751 434.08V462.496C93.5751 479.267 106.372 496.037 131.957 508.834C183.128 534.427 266.102 534.427 317.273 508.834C342.859 496.037 355.656 479.267 355.656 462.496V434.08C355.656 450.85 342.859 467.62 317.273 480.417Z" fill="url(#paint7_linear_40_998)"/>
<path d="M224.615 486.498C282.506 486.498 329.435 463.029 329.435 434.08C329.435 405.13 282.506 381.662 224.615 381.662C166.725 381.662 119.796 405.13 119.796 434.08C119.796 463.029 166.725 486.498 224.615 486.498Z" fill="url(#paint8_linear_40_998)"/>
<path d="M150.497 414.036C191.429 393.566 257.802 393.566 298.734 414.036C314.853 422.095 324.601 432.133 328.019 442.59C333.288 426.503 323.539 409.419 298.734 397.009C257.802 376.538 191.429 376.538 150.497 397.009C125.684 409.419 115.943 426.495 121.212 442.59C124.63 432.133 134.378 422.095 150.497 414.036Z" fill="#3D6646"/>
<path opacity="0.32" d="M355.624 84.7837H93.6072V431.544C92.8914 448.772 105.672 466.113 131.957 479.256C183.128 504.85 266.102 504.85 317.281 479.256C343.567 466.105 356.347 448.764 355.632 431.535V84.7837H355.624Z" fill="url(#paint9_linear_40_998)"/>
<path opacity="0.32" d="M329.813 0H119.418V431.431C118.839 445.265 129.102 459.188 150.207 469.741C191.3 490.291 257.922 490.291 299.015 469.741C320.121 459.18 330.384 445.257 329.805 431.423V0H329.813Z" fill="url(#paint10_linear_40_998)"/>
<path d="M192.04 372.976L154.06 353.978V315.998L192.04 334.988V372.976Z" fill="#4AB397"/>
<path d="M230.029 353.978L192.04 372.976V334.988L230.029 315.998V353.978Z" fill="#408166"/>
<path d="M230.029 315.998L192.04 334.988L154.06 315.998L192.04 297L230.029 315.998Z" fill="#79B786"/>
<path d="M280.83 175.944L248.6 186.682L227.109 165.198L259.346 154.453L280.83 175.944Z" fill="#4AB397"/>
<path d="M291.567 143.707L280.83 175.944L259.346 154.453L270.084 122.223L291.567 143.707Z" fill="#3F866C"/>
<path d="M270.084 122.223L259.346 154.453L227.109 165.198L237.855 132.961L270.084 122.223Z" fill="#72B17F"/>
<path d="M270.084 412.324L251.094 402.825V383.835L270.084 393.334V412.324Z" fill="#E3E5F9"/>
<path d="M289.074 402.825L270.084 412.324V393.334L289.074 383.835V402.825Z" fill="#BCC9F8"/>
<path d="M289.074 383.835L270.084 393.334L251.094 383.835L270.084 374.336L289.074 383.835Z" fill="url(#paint11_linear_40_998)"/>
<path d="M175.484 157.492L179.779 144.598L171.188 136L166.893 148.893L175.484 157.492Z" fill="#E3E5F9"/>
<path d="M162.59 161.787L175.483 157.492L166.893 148.893L154 153.188L162.59 161.787Z" fill="#BCC9F8"/>
<path d="M154 153.188L166.893 148.893L171.189 136L158.295 140.295L154 153.188Z" fill="url(#paint12_linear_40_998)"/>
<defs>
<filter id="filter0_dd_40_998" x="140.023" y="168.193" width="164.545" height="148.339" filterUnits="userSpaceOnUse" color-interpolation-filters="sRGB">
<feFlood flood-opacity="0" result="BackgroundImageFix"/>
<feColorMatrix in="SourceAlpha" type="matrix" values="0 0 0 0 0 0 0 0 0 0 0 0 0 0 0 0 0 0 127 0" result="hardAlpha"/>
<feOffset dx="-2" dy="-2"/>
<feComposite in2="hardAlpha" operator="out"/>
<feColorMatrix type="matrix" values="0 0 0 0 0.239216 0 0 0 0 0.4 0 0 0 0 0.27451 0 0 0 1 0"/>
<feBlend mode="normal" in2="BackgroundImageFix" result="effect1_dropShadow_40_998"/>
<feColorMatrix in="SourceAlpha" type="matrix" values="0 0 0 0 0 0 0 0 0 0 0 0 0 0 0 0 0 0 127 0" result="hardAlpha"/>
<feOffset dx="-4" dy="-4"/>
<feComposite in2="hardAlpha" operator="out"/>
<feColorMatrix type="matrix" values="0 0 0 0 0.239216 0 0 0 0 0.4 0 0 0 0 0.27451 0 0 0 1 0"/>
<feBlend mode="normal" in2="effect1_dropShadow_40_998" result="effect2_dropShadow_40_998"/>
<feBlend mode="normal" in="SourceGraphic" in2="effect2_dropShadow_40_998" result="shape"/>
</filter>
<linearGradient id="paint0_linear_40_998" x1="4.48056" y1="574.227" x2="451.706" y2="574.227" gradientUnits="userSpaceOnUse">
<stop stop-color="#141C25"/>
<stop offset="0.5"/>
<stop offset="1" stop-color="#141C25"/>
</linearGradient>
<linearGradient id="paint1_linear_40_998" x1="224" y1="515" x2="224" y2="939" gradientUnits="userSpaceOnUse">
<stop stop-color="#18222E" stop-opacity="0"/>
<stop offset="0.696255" stop-color="#131A23"/>
</linearGradient>
<linearGradient id="paint2_linear_40_998" x1="4.48056" y1="574.227" x2="451.706" y2="574.227" gradientUnits="userSpaceOnUse">
<stop stop-color="#18212A"/>
<stop offset="0.5" stop-color="#182029"/>
<stop offset="1" stop-color="#18212A"/>
</linearGradient>
<linearGradient id="paint3_linear_40_998" x1="224" y1="515" x2="224" y2="939" gradientUnits="userSpaceOnUse">
<stop stop-color="#18222E" stop-opacity="0"/>
<stop offset="0.696255" stop-color="#131A23"/>
</linearGradient>
<linearGradient id="paint4_linear_40_998" x1="56.9231" y1="528.302" x2="392.316" y2="528.302" gradientUnits="userSpaceOnUse">
<stop stop-color="#2B3A4B"/>
<stop offset="0.35" stop-color="#202C3B"/>
<stop offset="0.65" stop-color="#34485A"/>
<stop offset="1" stop-color="#23352A"/>
</linearGradient>
<linearGradient id="paint5_linear_40_998" x1="104.808" y1="531.989" x2="200.684" y2="340.275" gradientUnits="userSpaceOnUse">
<stop stop-color="#233828"/>
<stop offset="1" stop-color="#3D6646"/>
</linearGradient>
<linearGradient id="paint6_linear_40_998" x1="131.956" y1="480.415" x2="206.107" y2="332.143" gradientUnits="userSpaceOnUse">
<stop stop-color="#E8EAFB"/>
<stop offset="0.0001" stop-color="#3D6646"/>
<stop offset="1" stop-color="#599566"/>
</linearGradient>
<linearGradient id="paint7_linear_40_998" x1="94.9216" y1="481.05" x2="354.316" y2="481.05" gradientUnits="userSpaceOnUse">
<stop stop-color="#2C3B4D"/>
<stop offset="0.35" stop-color="#18222E"/>
<stop offset="0.65" stop-color="#374B62"/>
<stop offset="1" stop-color="#203224"/>
</linearGradient>
<linearGradient id="paint8_linear_40_998" x1="119.796" y1="434.076" x2="329.435" y2="434.076" gradientUnits="userSpaceOnUse">
<stop stop-color="#3D6646"/>
<stop offset="1" stop-color="#599566"/>
</linearGradient>
<linearGradient id="paint9_linear_40_998" x1="224.615" y1="81.6935" x2="224.615" y2="497.172" gradientUnits="userSpaceOnUse">
<stop stop-color="#18222E" stop-opacity="0"/>
<stop offset="1" stop-color="#34B2A7"/>
</linearGradient>
<linearGradient id="paint10_linear_40_998" x1="224.615" y1="-3.6238" x2="224.615" y2="483.659" gradientUnits="userSpaceOnUse">
<stop stop-color="#18222E" stop-opacity="0"/>
<stop offset="1" stop-color="#34B2A7"/>
</linearGradient>
<linearGradient id="paint11_linear_40_998" x1="251.091" y1="383.833" x2="289.075" y2="383.833" gradientUnits="userSpaceOnUse">
<stop stop-color="#E8EAFB"/>
<stop offset="1" stop-color="white"/>
</linearGradient>
<linearGradient id="paint12_linear_40_998" x1="171.187" y1="136.002" x2="153.998" y2="153.192" gradientUnits="userSpaceOnUse">
<stop stop-color="#E8EAFB"/>
<stop offset="1" stop-color="white"/>
</linearGradient>
</defs>
</svg>
